%TF.GenerationSoftware,KiCad,Pcbnew,8.0.4*%
%TF.CreationDate,2024-10-15T16:48:48+08:00*%
%TF.ProjectId,ST-Link_3.0_devkit,53542d4c-696e-46b5-9f33-2e305f646576,rev?*%
%TF.SameCoordinates,Original*%
%TF.FileFunction,Copper,L2,Bot*%
%TF.FilePolarity,Positive*%
%FSLAX46Y46*%
G04 Gerber Fmt 4.6, Leading zero omitted, Abs format (unit mm)*
G04 Created by KiCad (PCBNEW 8.0.4) date 2024-10-15 16:48:48*
%MOMM*%
%LPD*%
G01*
G04 APERTURE LIST*
%TA.AperFunction,ComponentPad*%
%ADD10R,1.700000X1.700000*%
%TD*%
%TA.AperFunction,ComponentPad*%
%ADD11O,1.700000X1.700000*%
%TD*%
%TA.AperFunction,ComponentPad*%
%ADD12C,1.560000*%
%TD*%
%TA.AperFunction,ViaPad*%
%ADD13C,0.600000*%
%TD*%
%TA.AperFunction,Conductor*%
%ADD14C,0.300000*%
%TD*%
%TA.AperFunction,Conductor*%
%ADD15C,0.500000*%
%TD*%
%TA.AperFunction,Conductor*%
%ADD16C,0.200000*%
%TD*%
G04 APERTURE END LIST*
D10*
%TO.P,CON3,1,1*%
%TO.N,3V3*%
X146812000Y-104825800D03*
D11*
%TO.P,CON3,2,2*%
%TO.N,/SWCLK*%
X149352000Y-104825800D03*
%TO.P,CON3,3,3*%
%TO.N,/GND_DETECT*%
X151892000Y-104825800D03*
%TO.P,CON3,4,4*%
%TO.N,/SWDIO*%
X154432000Y-104825800D03*
%TO.P,CON3,5,5*%
%TO.N,/UART_TX*%
X156972000Y-104825800D03*
%TO.P,CON3,6,6*%
%TO.N,/UART_RX*%
X159512000Y-104825800D03*
%TO.P,CON3,7,7*%
%TO.N,/PC1*%
X162052000Y-104825800D03*
%TO.P,CON3,8,8*%
%TO.N,/PC0*%
X164592000Y-104825800D03*
%TO.P,CON3,9,9*%
%TO.N,/PB14*%
X167132000Y-104825800D03*
%TO.P,CON3,10,10*%
%TO.N,GND*%
X169672000Y-104825800D03*
%TD*%
%TO.P,CON1,8,8*%
%TO.N,GND*%
X129032000Y-104825800D03*
%TO.P,CON1,7,7*%
%TO.N,/PC3*%
X126492000Y-104825800D03*
%TO.P,CON1,6,6*%
%TO.N,/PB2*%
X123952000Y-104825800D03*
%TO.P,CON1,5,5*%
%TO.N,/SWO*%
X121412000Y-104825800D03*
%TO.P,CON1,4,4*%
%TO.N,/PA4*%
X118872000Y-104825800D03*
%TO.P,CON1,3,3*%
%TO.N,/PA6*%
X116332000Y-104825800D03*
%TO.P,CON1,2,2*%
%TO.N,/PA7*%
X113792000Y-104825800D03*
D10*
%TO.P,CON1,1,1*%
%TO.N,5V*%
X111252000Y-104825800D03*
%TD*%
%TO.P,CON2,1,1*%
%TO.N,5V*%
X111252000Y-102285800D03*
D11*
%TO.P,CON2,2,2*%
%TO.N,/PA7*%
X113792000Y-102285800D03*
%TO.P,CON2,3,3*%
%TO.N,/PA6*%
X116332000Y-102285800D03*
%TO.P,CON2,4,4*%
%TO.N,/PA4*%
X118872000Y-102285800D03*
%TO.P,CON2,5,5*%
%TO.N,/SWO*%
X121412000Y-102285800D03*
%TO.P,CON2,6,6*%
%TO.N,/PB2*%
X123952000Y-102285800D03*
%TO.P,CON2,7,7*%
%TO.N,/PC3*%
X126492000Y-102285800D03*
%TO.P,CON2,8,8*%
%TO.N,GND*%
X129032000Y-102285800D03*
%TD*%
D10*
%TO.P,CON13,1,1*%
%TO.N,3V3*%
X144272000Y-99745800D03*
D11*
%TO.P,CON13,2,2*%
%TO.N,/SWCLK*%
X141732000Y-99745800D03*
%TO.P,CON13,3,3*%
%TO.N,/SWDIO*%
X139192000Y-99745800D03*
%TO.P,CON13,4,4*%
%TO.N,/SWO*%
X136652000Y-99745800D03*
%TO.P,CON13,5,5*%
%TO.N,/NRST*%
X134112000Y-99745800D03*
%TO.P,CON13,6,6*%
%TO.N,GND*%
X131572000Y-99745800D03*
%TD*%
D10*
%TO.P,CON12,1,1*%
%TO.N,/VCP_TX*%
X136652000Y-81965800D03*
D11*
%TO.P,CON12,2,2*%
%TO.N,/VCP_RX*%
X134112000Y-81965800D03*
%TO.P,CON12,3,3*%
%TO.N,GND*%
X131572000Y-81965800D03*
%TD*%
D10*
%TO.P,CON11,1,1*%
%TO.N,3V3*%
X144272000Y-97205800D03*
D11*
%TO.P,CON11,2,2*%
%TO.N,/SWCLK*%
X141732000Y-97205800D03*
%TO.P,CON11,3,3*%
%TO.N,/SWDIO*%
X139192000Y-97205800D03*
%TO.P,CON11,4,4*%
%TO.N,/SWO*%
X136652000Y-97205800D03*
%TO.P,CON11,5,5*%
%TO.N,/T_NRST*%
X134112000Y-97205800D03*
%TO.P,CON11,6,6*%
%TO.N,/GND_DETECT*%
X131572000Y-97205800D03*
%TD*%
D10*
%TO.P,CON10,1,1*%
%TO.N,/I2C_SDA*%
X136652000Y-89585800D03*
D11*
%TO.P,CON10,2,2*%
%TO.N,/I2C_SCL*%
X134112000Y-89585800D03*
%TO.P,CON10,3,3*%
%TO.N,GND*%
X131572000Y-89585800D03*
%TD*%
D10*
%TO.P,CON9,1,1*%
%TO.N,/SPI_NSS*%
X141706600Y-84505800D03*
D11*
%TO.P,CON9,2,2*%
%TO.N,/SPI_CLK*%
X139166600Y-84505800D03*
%TO.P,CON9,3,3*%
%TO.N,/SPI_MOSI*%
X136626600Y-84505800D03*
%TO.P,CON9,4,4*%
%TO.N,/SPI_MISO*%
X134086600Y-84505800D03*
%TO.P,CON9,5,5*%
%TO.N,GND*%
X131546600Y-84505800D03*
%TD*%
D10*
%TO.P,CON8,1,1*%
%TO.N,Net-(CON6-Pad2)*%
X131572000Y-94665800D03*
D11*
%TO.P,CON8,2,2*%
%TO.N,GND*%
X134112000Y-94665800D03*
%TO.P,CON8,3,3*%
%TO.N,/GPIO3*%
X136652000Y-94665800D03*
%TO.P,CON8,4,4*%
%TO.N,/GPIO2*%
X139192000Y-94665800D03*
%TO.P,CON8,5,5*%
%TO.N,/GPIO1*%
X141732000Y-94665800D03*
%TO.P,CON8,6,6*%
%TO.N,/GPIO0*%
X144272000Y-94665800D03*
%TD*%
D10*
%TO.P,CON7,1,1*%
%TO.N,/UART_TX*%
X141706600Y-79425800D03*
D11*
%TO.P,CON7,2,2*%
%TO.N,/UART_RX*%
X139166600Y-79425800D03*
%TO.P,CON7,3,3*%
%TO.N,/UART_RTS*%
X136626600Y-79425800D03*
%TO.P,CON7,4,4*%
%TO.N,/UART_CTS*%
X134086600Y-79425800D03*
%TO.P,CON7,5,5*%
%TO.N,GND*%
X131546600Y-79425800D03*
%TD*%
D10*
%TO.P,CON6,1,1*%
%TO.N,5V*%
X126492000Y-94665800D03*
D11*
%TO.P,CON6,2,2*%
%TO.N,Net-(CON6-Pad2)*%
X126492000Y-97205800D03*
%TO.P,CON6,3,3*%
%TO.N,3V3*%
X126492000Y-99745800D03*
%TD*%
D10*
%TO.P,CON4,1,1*%
%TO.N,3V3*%
X146812000Y-102285800D03*
D11*
%TO.P,CON4,2,2*%
%TO.N,/SWCLK*%
X149352000Y-102285800D03*
%TO.P,CON4,3,3*%
%TO.N,/GND_DETECT*%
X151892000Y-102285800D03*
%TO.P,CON4,4,4*%
%TO.N,/SWDIO*%
X154432000Y-102285800D03*
%TO.P,CON4,5,5*%
%TO.N,/UART_TX*%
X156972000Y-102285800D03*
%TO.P,CON4,6,6*%
%TO.N,/UART_RX*%
X159512000Y-102285800D03*
%TO.P,CON4,7,7*%
%TO.N,/PC1*%
X162052000Y-102285800D03*
%TO.P,CON4,8,8*%
%TO.N,/PC0*%
X164592000Y-102285800D03*
%TO.P,CON4,9,9*%
%TO.N,/PB14*%
X167132000Y-102285800D03*
%TO.P,CON4,10,10*%
%TO.N,GND*%
X169672000Y-102285800D03*
%TD*%
D12*
%TO.P,,*%
%TO.N,*%
X103632000Y-89585800D03*
%TD*%
%TO.P,,*%
%TO.N,/PA7*%
X113792000Y-89585800D03*
%TD*%
%TO.P,,*%
%TO.N,*%
X108712000Y-89585800D03*
%TD*%
%TO.P,,*%
%TO.N,*%
X103632000Y-79425800D03*
%TD*%
%TO.P,,*%
%TO.N,*%
X103632000Y-87045800D03*
%TD*%
%TO.P,,*%
%TO.N,*%
X106172000Y-84505800D03*
%TD*%
%TO.P,,*%
%TO.N,*%
X108712000Y-87045800D03*
%TD*%
%TO.P,,*%
%TO.N,*%
X106172000Y-89585800D03*
%TD*%
%TO.P,,*%
%TO.N,*%
X106172000Y-81965800D03*
%TD*%
%TO.P,,*%
%TO.N,*%
X106172000Y-79425800D03*
%TD*%
%TO.P,,*%
%TO.N,*%
X103632000Y-81965800D03*
%TD*%
%TO.P,,*%
%TO.N,*%
X103632000Y-84505800D03*
%TD*%
%TO.P,,*%
%TO.N,*%
X106172000Y-87045800D03*
%TD*%
%TO.P,,2*%
%TO.N,/SWO*%
X121412000Y-89585800D03*
%TD*%
%TO.P,,2*%
%TO.N,/PC3*%
X126492000Y-89585800D03*
%TD*%
%TO.P,,*%
%TO.N,*%
X118872000Y-87045800D03*
%TD*%
%TO.P,,*%
%TO.N,*%
X118872000Y-81965800D03*
%TD*%
%TO.P,,*%
%TO.N,*%
X113792000Y-87045800D03*
%TD*%
%TO.P,,*%
%TO.N,*%
X121412000Y-84505800D03*
%TD*%
%TO.P,,*%
%TO.N,*%
X126492000Y-84505800D03*
%TD*%
%TO.P,,*%
%TO.N,*%
X126492000Y-81965800D03*
%TD*%
%TO.P,,*%
%TO.N,*%
X121412000Y-81965800D03*
%TD*%
%TO.P,,*%
%TO.N,*%
X123952000Y-81965800D03*
%TD*%
%TO.P,,2*%
%TO.N,/PB2*%
X123952000Y-89585800D03*
%TD*%
%TO.P,,*%
%TO.N,*%
X121412000Y-87045800D03*
%TD*%
%TO.P,,*%
%TO.N,*%
X123952000Y-87045800D03*
%TD*%
%TO.P,,*%
%TO.N,*%
X116332000Y-81965800D03*
%TD*%
%TO.P,,*%
%TO.N,*%
X113792000Y-81965800D03*
%TD*%
%TO.P,,*%
%TO.N,*%
X116332000Y-87045800D03*
%TD*%
%TO.P,,2*%
%TO.N,/PA4*%
X118872000Y-89585800D03*
%TD*%
%TO.P,,*%
%TO.N,*%
X126492000Y-87045800D03*
%TD*%
%TO.P,,*%
%TO.N,*%
X108712000Y-92125800D03*
%TD*%
%TO.P,,*%
%TO.N,*%
X103632000Y-94665800D03*
%TD*%
%TO.P,,*%
%TO.N,*%
X106172000Y-92125800D03*
%TD*%
%TO.P,,*%
%TO.N,*%
X103632000Y-92125800D03*
%TD*%
%TO.P,,2*%
%TO.N,/PA6*%
X116332000Y-89585800D03*
%TD*%
%TO.P,,*%
%TO.N,*%
X106172000Y-94665800D03*
%TD*%
%TO.P,,*%
%TO.N,*%
X108712000Y-94665800D03*
%TD*%
%TO.P,,2*%
%TO.N,5V*%
X111252000Y-89585800D03*
%TD*%
%TO.P,,*%
%TO.N,5V*%
X111252000Y-81965800D03*
%TD*%
%TO.P,,*%
%TO.N,*%
X118872000Y-84505800D03*
%TD*%
%TO.P,,*%
%TO.N,5V*%
X111252000Y-79425800D03*
%TD*%
%TO.P,,*%
%TO.N,*%
X113792000Y-84505800D03*
%TD*%
%TO.P,,*%
%TO.N,*%
X116332000Y-84505800D03*
%TD*%
%TO.P,,*%
%TO.N,GND*%
X129032000Y-81965800D03*
%TD*%
%TO.P,,*%
%TO.N,GND*%
X129032000Y-84505800D03*
%TD*%
%TO.P,,*%
%TO.N,*%
X113792000Y-79425800D03*
%TD*%
%TO.P,,*%
%TO.N,*%
X121412000Y-79425800D03*
%TD*%
%TO.P,,*%
%TO.N,*%
X118872000Y-79425800D03*
%TD*%
%TO.P,,*%
%TO.N,GND*%
X129032000Y-79425800D03*
%TD*%
%TO.P,,*%
%TO.N,5V*%
X111252000Y-84505800D03*
%TD*%
%TO.P,,*%
%TO.N,*%
X116332000Y-79425800D03*
%TD*%
%TO.P,,*%
%TO.N,*%
X123952000Y-84505800D03*
%TD*%
%TO.P,,*%
%TO.N,5V*%
X111252000Y-87045800D03*
%TD*%
%TO.P,,*%
%TO.N,*%
X126492000Y-79425800D03*
%TD*%
%TO.P,,*%
%TO.N,*%
X123952000Y-79425800D03*
%TD*%
%TO.P,,*%
%TO.N,*%
X108712000Y-79425800D03*
%TD*%
%TO.P,,*%
%TO.N,3V3*%
X146812000Y-84505800D03*
%TD*%
%TO.P,,*%
%TO.N,*%
X154432000Y-79425800D03*
%TD*%
%TO.P,,*%
%TO.N,*%
X154432000Y-81965800D03*
%TD*%
%TO.P,,*%
%TO.N,*%
X151892000Y-81965800D03*
%TD*%
%TO.P,,*%
%TO.N,3V3*%
X146812000Y-79425800D03*
%TD*%
%TO.P,,2*%
%TO.N,GND*%
X129032000Y-89585800D03*
%TD*%
%TO.P,,*%
%TO.N,*%
X149352000Y-81965800D03*
%TD*%
%TO.P,,*%
%TO.N,*%
X108712000Y-84505800D03*
%TD*%
%TO.P,,*%
%TO.N,/PC1*%
X162052000Y-81965800D03*
%TD*%
%TO.P,,*%
%TO.N,GND*%
X129032000Y-87045800D03*
%TD*%
%TO.P,,*%
%TO.N,*%
X149352000Y-79425800D03*
%TD*%
%TO.P,,*%
%TO.N,/PB14*%
X159512000Y-81965800D03*
%TD*%
%TO.P,,*%
%TO.N,*%
X151892000Y-79425800D03*
%TD*%
%TO.P,,*%
%TO.N,/PC0*%
X162052000Y-79425800D03*
%TD*%
%TO.P,,*%
%TO.N,*%
X108712000Y-81965800D03*
%TD*%
%TO.P,,*%
%TO.N,3V3*%
X146812000Y-81965800D03*
%TD*%
%TO.P,,*%
%TO.N,3V3*%
X146812000Y-87045800D03*
%TD*%
D13*
%TO.N,GND*%
X159893000Y-93776800D03*
X174117000Y-98475800D03*
X177927000Y-94538800D03*
X165481000Y-94665800D03*
X158242000Y-97078800D03*
X175273460Y-77625500D03*
X175895000Y-82981800D03*
X172339000Y-83235800D03*
X160528000Y-89966800D03*
X103886000Y-97205800D03*
X143510000Y-107746800D03*
X119761000Y-107619800D03*
X127254000Y-107619800D03*
X135509000Y-105333800D03*
X103759000Y-105333800D03*
X104394000Y-107746800D03*
X129794000Y-92379800D03*
X113030000Y-107746800D03*
X112776000Y-92506800D03*
X158236820Y-95255210D03*
X158091000Y-91260800D03*
%TO.N,/SWCLK*%
X157988000Y-88061800D03*
%TO.N,GND*%
X177014000Y-89228800D03*
X159893000Y-86029800D03*
%TO.N,/T_NRST*%
X166116000Y-96443800D03*
%TO.N,GND*%
X155424000Y-92784800D03*
X162663000Y-96721800D03*
X171807000Y-86053800D03*
%TO.N,/UART_RX*%
X158623000Y-87299800D03*
%TO.N,GND*%
X163703000Y-92887800D03*
%TO.N,3V3*%
X146939000Y-94792800D03*
%TO.N,/I2C_SCL*%
X149860000Y-86283800D03*
%TO.N,/PC0*%
X168003720Y-79286860D03*
%TO.N,/UART_TX*%
X163830000Y-77266800D03*
%TO.N,/SWDIO*%
X164973000Y-88442800D03*
%TO.N,/SWCLK*%
X152273000Y-100507800D03*
%TO.N,/SWO*%
X162433000Y-94030800D03*
%TO.N,/I2C_SDA*%
X149606000Y-96189800D03*
%TO.N,/VCP_TX*%
X154813000Y-86156800D03*
%TO.N,/I2C_SCL*%
X149987000Y-90601800D03*
%TO.N,GND*%
X120396000Y-92506800D03*
X122682000Y-92379800D03*
X117856000Y-92506800D03*
X115316000Y-92506800D03*
X124968000Y-92506800D03*
X167386000Y-86029800D03*
X172736560Y-96165550D03*
%TO.N,/I2C_SDA*%
X150495000Y-92125800D03*
%TO.N,GND*%
X138684000Y-91363800D03*
X140335000Y-102539800D03*
%TO.N,3V3*%
X171450000Y-105968800D03*
%TO.N,/UART_RX*%
X172466000Y-104190800D03*
%TO.N,3V3*%
X166370000Y-97332800D03*
%TO.N,/PC1*%
X167975180Y-81711800D03*
%TD*%
D14*
%TO.N,/GND_DETECT*%
X132842000Y-100634800D02*
X132842000Y-98475800D01*
%TO.N,/SWCLK*%
X167513000Y-97586800D02*
X167513000Y-94284800D01*
%TO.N,/SWDIO*%
X168148000Y-97713800D02*
X168148000Y-94030800D01*
X156718000Y-99999800D02*
X165862000Y-99999800D01*
%TO.N,/UART_RX*%
X159512000Y-102285800D02*
X161290000Y-100507800D01*
%TO.N,/PC1*%
X162052000Y-102285800D02*
X162052000Y-102158800D01*
%TO.N,/PB14*%
X167339000Y-102078800D02*
X167339000Y-100046800D01*
%TO.N,/UART_RX*%
X168656000Y-97967800D02*
X168656000Y-93776800D01*
%TO.N,/PB14*%
X159512000Y-81965800D02*
X160782000Y-83235800D01*
%TO.N,/PC0*%
X162121470Y-79356330D02*
X167934250Y-79356330D01*
X164592000Y-102285800D02*
X164846000Y-102285800D01*
%TO.N,/UART_TX*%
X141732000Y-79425800D02*
X143891000Y-77266800D01*
%TO.N,3V3*%
X147605260Y-97491060D02*
X149098000Y-98983800D01*
%TO.N,/SWDIO*%
X154432000Y-102285800D02*
X156718000Y-99999800D01*
%TO.N,/UART_TX*%
X143891000Y-77266800D02*
X163830000Y-77266800D01*
%TO.N,/SWCLK*%
X165608000Y-99491800D02*
X167513000Y-97586800D01*
%TO.N,/UART_RX*%
X161290000Y-100507800D02*
X166116000Y-100507800D01*
%TO.N,/SWDIO*%
X165862000Y-99999800D02*
X168148000Y-97713800D01*
%TO.N,/UART_RX*%
X166116000Y-100507800D02*
X168656000Y-97967800D01*
%TO.N,/PB14*%
X167132000Y-102285800D02*
X167339000Y-102078800D01*
%TO.N,/T_NRST*%
X147701000Y-96824800D02*
X149352000Y-98475800D01*
%TO.N,/SWCLK*%
X148082000Y-101015800D02*
X149352000Y-102285800D01*
%TO.N,/SWO*%
X147828000Y-96189800D02*
X149606000Y-97967800D01*
%TO.N,/T_NRST*%
X146558000Y-96824800D02*
X147701000Y-96824800D01*
%TO.N,/SWDIO*%
X150622000Y-102920800D02*
X151257000Y-103555800D01*
X151257000Y-103555800D02*
X153162000Y-103555800D01*
%TO.N,/SWCLK*%
X141732000Y-99872800D02*
X142875000Y-101015800D01*
X142875000Y-101015800D02*
X148082000Y-101015800D01*
D15*
%TO.N,3V3*%
X146812000Y-81965800D02*
X146812000Y-79425800D01*
D14*
%TO.N,/SWDIO*%
X147701000Y-98475800D02*
X150622000Y-101396800D01*
X140462000Y-98475800D02*
X147701000Y-98475800D01*
X150622000Y-102920800D02*
X150622000Y-101396800D01*
%TO.N,3V3*%
X144557260Y-97491060D02*
X147605260Y-97491060D01*
%TO.N,/T_NRST*%
X145655420Y-95922220D02*
X146558000Y-96824800D01*
%TO.N,/SWDIO*%
X139192000Y-99745800D02*
X140462000Y-98475800D01*
D15*
%TO.N,3V3*%
X146812000Y-84505800D02*
X146812000Y-81965800D01*
D14*
%TO.N,/T_NRST*%
X135382000Y-98475800D02*
X137287000Y-98475800D01*
%TO.N,/SWO*%
X137922000Y-94030800D02*
X138811000Y-93141800D01*
%TO.N,/GND_DETECT*%
X151618410Y-104552210D02*
X151892000Y-104825800D01*
X150856410Y-104552210D02*
X151618410Y-104552210D01*
%TO.N,/T_NRST*%
X137922000Y-97840800D02*
X137922000Y-96443800D01*
%TO.N,/SWDIO*%
X153162000Y-103555800D02*
X154432000Y-104825800D01*
%TO.N,/T_NRST*%
X137287000Y-98475800D02*
X137922000Y-97840800D01*
%TO.N,/SWO*%
X135378050Y-95931850D02*
X136652000Y-97205800D01*
D15*
%TO.N,/UART_RX*%
X159512000Y-104825800D02*
X159512000Y-102285800D01*
D14*
%TO.N,/SWCLK*%
X141732000Y-99872800D02*
X141732000Y-99745800D01*
%TO.N,/T_NRST*%
X134112000Y-97205800D02*
X135382000Y-98475800D01*
%TO.N,/GND_DETECT*%
X131572000Y-97205800D02*
X132842000Y-98475800D01*
%TO.N,/T_NRST*%
X137922000Y-96443800D02*
X138443580Y-95922220D01*
D15*
%TO.N,/PC1*%
X162052000Y-104825800D02*
X162052000Y-102285800D01*
D14*
%TO.N,/T_NRST*%
X138443580Y-95922220D02*
X145655420Y-95922220D01*
%TO.N,3V3*%
X144272000Y-97205800D02*
X144557260Y-97491060D01*
D15*
X146812000Y-87045800D02*
X146812000Y-84505800D01*
D14*
%TO.N,/SWO*%
X138811000Y-93141800D02*
X144653000Y-93141800D01*
D15*
%TO.N,/UART_TX*%
X156972000Y-104825800D02*
X156972000Y-102285800D01*
D14*
%TO.N,/SWCLK*%
X155321000Y-100507800D02*
X156337000Y-99491800D01*
%TO.N,/UART_RX*%
X168148000Y-93268800D02*
X168656000Y-93776800D01*
X168148000Y-93268800D02*
X168148000Y-90093800D01*
%TO.N,/SWO*%
X146685000Y-96189800D02*
X147828000Y-96189800D01*
%TO.N,/PB14*%
X168656000Y-93014800D02*
X169164000Y-93522800D01*
%TO.N,/SWO*%
X144653000Y-93141800D02*
X145796000Y-94284800D01*
%TO.N,/I2C_SDA*%
X149606000Y-96189800D02*
X150495000Y-95300800D01*
%TO.N,/SWO*%
X145796000Y-95300800D02*
X145796000Y-94284800D01*
%TO.N,/PB14*%
X162052000Y-83235800D02*
X168656000Y-89839800D01*
%TO.N,/SWCLK*%
X156337000Y-99491800D02*
X165608000Y-99491800D01*
X152273000Y-100507800D02*
X155321000Y-100507800D01*
D16*
%TO.N,/UART_RX*%
X159512000Y-104825800D02*
X160782000Y-106095800D01*
D14*
%TO.N,/PB14*%
X168656000Y-93014800D02*
X168656000Y-89839800D01*
%TO.N,/I2C_SDA*%
X150495000Y-95300800D02*
X150495000Y-92125800D01*
D16*
%TO.N,/UART_RX*%
X167640000Y-106095800D02*
X168275000Y-105460800D01*
D14*
%TO.N,/PC0*%
X169164000Y-86664800D02*
X169164000Y-80447140D01*
%TO.N,/SWCLK*%
X161290000Y-88061800D02*
X167513000Y-94284800D01*
%TO.N,/SWDIO*%
X167640000Y-93522800D02*
X167640000Y-91109800D01*
%TO.N,/SWO*%
X158496000Y-97967800D02*
X162433000Y-94030800D01*
D16*
%TO.N,/UART_RX*%
X160782000Y-106095800D02*
X167640000Y-106095800D01*
X168275000Y-105460800D02*
X168275000Y-104063800D01*
D14*
%TO.N,/PC0*%
X169164000Y-92633800D02*
X169164000Y-86664800D01*
%TO.N,/UART_RX*%
X165349760Y-87295560D02*
X168148000Y-90093800D01*
%TO.N,/PC0*%
X169164000Y-92633800D02*
X169672000Y-93141800D01*
%TO.N,/SWDIO*%
X164973000Y-88442800D02*
X167640000Y-91109800D01*
%TO.N,/SWO*%
X145796000Y-95300800D02*
X146685000Y-96189800D01*
%TO.N,/SWDIO*%
X167640000Y-93522800D02*
X168148000Y-94030800D01*
%TO.N,/SWCLK*%
X157988000Y-88061800D02*
X161290000Y-88061800D01*
%TO.N,/SWO*%
X149606000Y-97967800D02*
X158496000Y-97967800D01*
%TO.N,/PC0*%
X169672000Y-98475800D02*
X169672000Y-93141800D01*
%TO.N,/PB14*%
X160782000Y-83235800D02*
X162052000Y-83235800D01*
%TO.N,/VCP_TX*%
X142113000Y-81965800D02*
X146050000Y-78028800D01*
X146050000Y-78028800D02*
X147447000Y-78028800D01*
%TO.N,/PC0*%
X168003720Y-79286860D02*
X169164000Y-80447140D01*
%TO.N,/PB14*%
X167339000Y-100046800D02*
X169164000Y-98221800D01*
%TO.N,/GND_DETECT*%
X142240000Y-101269800D02*
X144526000Y-103555800D01*
X132842000Y-100634800D02*
X133477000Y-101269800D01*
%TO.N,/PC0*%
X164592000Y-104825800D02*
X165862000Y-103555800D01*
%TO.N,/VCP_TX*%
X148082000Y-82854800D02*
X151384000Y-86156800D01*
X148082000Y-82854800D02*
X148082000Y-78663800D01*
%TO.N,/UART_RX*%
X158623000Y-87299800D02*
X158627240Y-87295560D01*
%TO.N,/VCP_TX*%
X136652000Y-81965800D02*
X142113000Y-81965800D01*
%TO.N,/PC0*%
X168402000Y-102793800D02*
X168402000Y-99745800D01*
%TO.N,/UART_RX*%
X158627240Y-87295560D02*
X165349760Y-87295560D01*
%TO.N,/GND_DETECT*%
X133477000Y-101269800D02*
X142240000Y-101269800D01*
%TO.N,/PC0*%
X168402000Y-99745800D02*
X169672000Y-98475800D01*
%TO.N,/VCP_TX*%
X147447000Y-78028800D02*
X148082000Y-78663800D01*
X151384000Y-86156800D02*
X154813000Y-86156800D01*
%TO.N,/PB14*%
X169164000Y-98221800D02*
X169164000Y-93522800D01*
%TO.N,/PC0*%
X165862000Y-103555800D02*
X167640000Y-103555800D01*
%TO.N,/GND_DETECT*%
X144526000Y-103555800D02*
X149860000Y-103555800D01*
X149860000Y-103555800D02*
X150856410Y-104552210D01*
%TO.N,/T_NRST*%
X149352000Y-98475800D02*
X164084000Y-98475800D01*
X164084000Y-98475800D02*
X166116000Y-96443800D01*
%TO.N,/PC0*%
X167640000Y-103555800D02*
X168402000Y-102793800D01*
D15*
%TO.N,5V*%
X126492000Y-94665800D02*
X127762000Y-95935800D01*
D14*
%TO.N,/I2C_SCL*%
X149860000Y-86364980D02*
X149987000Y-86491980D01*
%TO.N,/SWO*%
X127889000Y-90855800D02*
X128905000Y-91871800D01*
X128905000Y-94665800D02*
X130171050Y-95931850D01*
X136893090Y-96329710D02*
X137922000Y-95300800D01*
D15*
%TO.N,5V*%
X112522000Y-106095800D02*
X127254000Y-106095800D01*
X127254000Y-106095800D02*
X127762000Y-105587800D01*
D14*
%TO.N,/I2C_SCL*%
X149860000Y-86364980D02*
X149860000Y-86283800D01*
X149987000Y-90601800D02*
X149987000Y-86491980D01*
%TO.N,/SWO*%
X122682000Y-90855800D02*
X127889000Y-90855800D01*
X121412000Y-89585800D02*
X122682000Y-90855800D01*
X137922000Y-95300800D02*
X137922000Y-94030800D01*
X136652000Y-97205800D02*
X136893090Y-96964710D01*
X136893090Y-96964710D02*
X136893090Y-96329710D01*
D15*
%TO.N,5V*%
X127762000Y-105587800D02*
X127762000Y-95935800D01*
D14*
%TO.N,/SWO*%
X130171050Y-95931850D02*
X135378050Y-95931850D01*
%TO.N,/PC1*%
X162327280Y-81769200D02*
X167917780Y-81769200D01*
D15*
%TO.N,5V*%
X111252000Y-104825800D02*
X112522000Y-106095800D01*
D14*
%TO.N,/PC1*%
X162130680Y-81965800D02*
X162327280Y-81769200D01*
%TO.N,/SWO*%
X128905000Y-94665800D02*
X128905000Y-91871800D01*
%TO.N,/PC1*%
X167917780Y-81769200D02*
X167975180Y-81711800D01*
%TO.N,3V3*%
X146812000Y-104825800D02*
X148717000Y-106730800D01*
D16*
%TO.N,/UART_RX*%
X168275000Y-104063800D02*
X168783000Y-103555800D01*
X171831000Y-103555800D02*
X172466000Y-104190800D01*
D14*
%TO.N,3V3*%
X148717000Y-106730800D02*
X170688000Y-106730800D01*
X170688000Y-106730800D02*
X171450000Y-105968800D01*
D15*
X146875500Y-94729300D02*
X146875500Y-87045800D01*
D14*
X149098000Y-98983800D02*
X164719000Y-98983800D01*
D16*
%TO.N,/UART_RX*%
X168783000Y-103555800D02*
X171831000Y-103555800D01*
D14*
%TO.N,3V3*%
X164719000Y-98983800D02*
X166370000Y-97332800D01*
%TD*%
%TA.AperFunction,Conductor*%
%TO.N,GND*%
G36*
X176023965Y-76751403D02*
G01*
X176364018Y-76769224D01*
X176371816Y-76770044D01*
X176706201Y-76823006D01*
X176713872Y-76824636D01*
X177040894Y-76912260D01*
X177048373Y-76914691D01*
X177364417Y-77036009D01*
X177371594Y-77039204D01*
X177565272Y-77137888D01*
X177673239Y-77192900D01*
X177680056Y-77196836D01*
X177963972Y-77381213D01*
X177970340Y-77385840D01*
X178230560Y-77596562D01*
X178233428Y-77598884D01*
X178239277Y-77604151D01*
X178478648Y-77843522D01*
X178483915Y-77849371D01*
X178696959Y-78112459D01*
X178701586Y-78118827D01*
X178885963Y-78402743D01*
X178889899Y-78409560D01*
X179043592Y-78711198D01*
X179046793Y-78718389D01*
X179168107Y-79034423D01*
X179170540Y-79041909D01*
X179258160Y-79368913D01*
X179259796Y-79376612D01*
X179312753Y-79710968D01*
X179313576Y-79718796D01*
X179331397Y-80058834D01*
X179331500Y-80062770D01*
X179331500Y-80130890D01*
X179331577Y-80132077D01*
X179358787Y-104826497D01*
X179358684Y-104830516D01*
X179340716Y-105173364D01*
X179339893Y-105181192D01*
X179286489Y-105518368D01*
X179284853Y-105526068D01*
X179196492Y-105855830D01*
X179194059Y-105863315D01*
X179071721Y-106182016D01*
X179068520Y-106189207D01*
X178913530Y-106493389D01*
X178909594Y-106500206D01*
X178723661Y-106786517D01*
X178719034Y-106792885D01*
X178504197Y-107058186D01*
X178498930Y-107064036D01*
X178257529Y-107305436D01*
X178251680Y-107310702D01*
X177986378Y-107525539D01*
X177980010Y-107530166D01*
X177693698Y-107716098D01*
X177686881Y-107720034D01*
X177382699Y-107875023D01*
X177375508Y-107878224D01*
X177056807Y-108000561D01*
X177049321Y-108002994D01*
X176719559Y-108091354D01*
X176711860Y-108092990D01*
X176374683Y-108146394D01*
X176366855Y-108147217D01*
X176023773Y-108165197D01*
X176019837Y-108165300D01*
X104776971Y-108165300D01*
X104773035Y-108165197D01*
X104443240Y-108147913D01*
X104435412Y-108147090D01*
X104111188Y-108095738D01*
X104103489Y-108094102D01*
X103786393Y-108009136D01*
X103778907Y-108006703D01*
X103472449Y-107889065D01*
X103465258Y-107885864D01*
X103172760Y-107736829D01*
X103165943Y-107732893D01*
X102890630Y-107554102D01*
X102884262Y-107549475D01*
X102629146Y-107342887D01*
X102623297Y-107337620D01*
X102391179Y-107105502D01*
X102385912Y-107099653D01*
X102179324Y-106844537D01*
X102174697Y-106838169D01*
X101995906Y-106562856D01*
X101991970Y-106556039D01*
X101904826Y-106385009D01*
X101842932Y-106263534D01*
X101839734Y-106256350D01*
X101833094Y-106239053D01*
X101722095Y-105949889D01*
X101719663Y-105942406D01*
X101715048Y-105925181D01*
X101634694Y-105625296D01*
X101633064Y-105617625D01*
X101581707Y-105293372D01*
X101580887Y-105285574D01*
X101563604Y-104955797D01*
X101563502Y-104951786D01*
X101563543Y-104917253D01*
X101564657Y-103960742D01*
X110249100Y-103960742D01*
X110249100Y-105690855D01*
X110249101Y-105690857D01*
X110257972Y-105735459D01*
X110291764Y-105786032D01*
X110291765Y-105786032D01*
X110291766Y-105786034D01*
X110342342Y-105819828D01*
X110386943Y-105828700D01*
X111653965Y-105828699D01*
X111702303Y-105846292D01*
X111707139Y-105850725D01*
X112196327Y-106339913D01*
X112196350Y-106339939D01*
X112274608Y-106418197D01*
X112274611Y-106418199D01*
X112274613Y-106418201D01*
X112366486Y-106471243D01*
X112388141Y-106477045D01*
X112468957Y-106498701D01*
X112579646Y-106498701D01*
X112579662Y-106498700D01*
X127196338Y-106498700D01*
X127196354Y-106498701D01*
X127200957Y-106498701D01*
X127307043Y-106498701D01*
X127387858Y-106477045D01*
X127401905Y-106473281D01*
X127409512Y-106471244D01*
X127409514Y-106471243D01*
X127409521Y-106471239D01*
X127501387Y-106418201D01*
X127576401Y-106343187D01*
X127576402Y-106343183D01*
X127581797Y-106337789D01*
X127581801Y-106337783D01*
X128003192Y-105916393D01*
X128003202Y-105916386D01*
X128084397Y-105835191D01*
X128084401Y-105835187D01*
X128137443Y-105743314D01*
X128143308Y-105721426D01*
X128156955Y-105670495D01*
X128186460Y-105628359D01*
X128236147Y-105615046D01*
X128280254Y-105634387D01*
X128363834Y-105710581D01*
X128363838Y-105710583D01*
X128537792Y-105818291D01*
X128728583Y-105892205D01*
X128904999Y-105925181D01*
X128905000Y-105925181D01*
X128905000Y-105309408D01*
X128966174Y-105325800D01*
X129097826Y-105325800D01*
X129159000Y-105309408D01*
X129159000Y-105925181D01*
X129335416Y-105892205D01*
X129526207Y-105818291D01*
X129700161Y-105710583D01*
X129700165Y-105710581D01*
X129851361Y-105572746D01*
X129851364Y-105572743D01*
X129974663Y-105409467D01*
X130065859Y-105226320D01*
X130065861Y-105226317D01*
X130121850Y-105029535D01*
X130121851Y-105029529D01*
X130128962Y-104952800D01*
X129515608Y-104952800D01*
X129532000Y-104891626D01*
X129532000Y-104759974D01*
X129515608Y-104698800D01*
X130128962Y-104698800D01*
X130121851Y-104622070D01*
X130121850Y-104622064D01*
X130065861Y-104425282D01*
X130065859Y-104425279D01*
X129974663Y-104242132D01*
X129851364Y-104078856D01*
X129851361Y-104078853D01*
X129700165Y-103941018D01*
X129700161Y-103941016D01*
X129526207Y-103833308D01*
X129335418Y-103759395D01*
X129335419Y-103759395D01*
X129159000Y-103726417D01*
X129159000Y-104342191D01*
X129097826Y-104325800D01*
X128966174Y-104325800D01*
X128905000Y-104342191D01*
X128905000Y-103726417D01*
X128728580Y-103759395D01*
X128537792Y-103833308D01*
X128363839Y-103941015D01*
X128290762Y-104007634D01*
X128243187Y-104027197D01*
X128194168Y-104011602D01*
X128166641Y-103968148D01*
X128164900Y-103952060D01*
X128164900Y-103159539D01*
X128182493Y-103111201D01*
X128227042Y-103085481D01*
X128277700Y-103094414D01*
X128290762Y-103103966D01*
X128363834Y-103170581D01*
X128363838Y-103170583D01*
X128537792Y-103278291D01*
X128728583Y-103352205D01*
X128904999Y-103385181D01*
X128905000Y-103385181D01*
X128905000Y-102769408D01*
X128966174Y-102785800D01*
X129097826Y-102785800D01*
X129159000Y-102769408D01*
X129159000Y-103385181D01*
X129335416Y-103352205D01*
X129526207Y-103278291D01*
X129700161Y-103170583D01*
X129700165Y-103170581D01*
X129851361Y-103032746D01*
X129851364Y-103032743D01*
X129974663Y-102869467D01*
X130065859Y-102686320D01*
X130065861Y-102686317D01*
X130121850Y-102489535D01*
X130121851Y-102489529D01*
X130128962Y-102412800D01*
X129515608Y-102412800D01*
X129532000Y-102351626D01*
X129532000Y-102219974D01*
X129515608Y-102158800D01*
X130128962Y-102158800D01*
X130121851Y-102082070D01*
X130121850Y-102082064D01*
X130065861Y-101885282D01*
X130065859Y-101885279D01*
X129974663Y-101702132D01*
X129851364Y-101538856D01*
X129851361Y-101538853D01*
X129700165Y-101401018D01*
X129700161Y-101401016D01*
X129526207Y-101293308D01*
X129335418Y-101219395D01*
X129335419Y-101219395D01*
X129159000Y-101186417D01*
X129159000Y-101802191D01*
X129097826Y-101785800D01*
X128966174Y-101785800D01*
X128905000Y-101802191D01*
X128905000Y-101186417D01*
X128728580Y-101219395D01*
X128537792Y-101293308D01*
X128363839Y-101401015D01*
X128290762Y-101467634D01*
X128243187Y-101487197D01*
X128194168Y-101471602D01*
X128166641Y-101428148D01*
X128164900Y-101412060D01*
X128164900Y-95994911D01*
X128164901Y-95994898D01*
X128164901Y-95882757D01*
X128143245Y-95801942D01*
X128143244Y-95801939D01*
X128137443Y-95780286D01*
X128084401Y-95688413D01*
X128084399Y-95688411D01*
X128084397Y-95688408D01*
X128006139Y-95610150D01*
X128006113Y-95610127D01*
X127516925Y-95120939D01*
X127495185Y-95074319D01*
X127494899Y-95067765D01*
X127494899Y-93800744D01*
X127494899Y-93800743D01*
X127486028Y-93756142D01*
X127471738Y-93734756D01*
X127452235Y-93705567D01*
X127452231Y-93705564D01*
X127401658Y-93671772D01*
X127401656Y-93671771D01*
X127357057Y-93662900D01*
X125626944Y-93662900D01*
X125626942Y-93662901D01*
X125582340Y-93671772D01*
X125531767Y-93705564D01*
X125497972Y-93756142D01*
X125497971Y-93756143D01*
X125489100Y-93800742D01*
X125489100Y-95530855D01*
X125489101Y-95530857D01*
X125497972Y-95575459D01*
X125531764Y-95626032D01*
X125531765Y-95626032D01*
X125531766Y-95626034D01*
X125582342Y-95659828D01*
X125626943Y-95668700D01*
X126893965Y-95668699D01*
X126942303Y-95686292D01*
X126947139Y-95690725D01*
X127337074Y-96080660D01*
X127358814Y-96127280D01*
X127359100Y-96133834D01*
X127359100Y-96471312D01*
X127341507Y-96519650D01*
X127296958Y-96545370D01*
X127246300Y-96536437D01*
X127225770Y-96519019D01*
X127204587Y-96493208D01*
X127051885Y-96367889D01*
X127051881Y-96367886D01*
X127051879Y-96367885D01*
X127051878Y-96367884D01*
X126952729Y-96314888D01*
X126877647Y-96274756D01*
X126877643Y-96274755D01*
X126688600Y-96217410D01*
X126492000Y-96198047D01*
X126295400Y-96217410D01*
X126295398Y-96217410D01*
X126106356Y-96274755D01*
X126106352Y-96274756D01*
X125932118Y-96367886D01*
X125932114Y-96367889D01*
X125779410Y-96493210D01*
X125654089Y-96645914D01*
X125654086Y-96645918D01*
X125560956Y-96820152D01*
X125560955Y-96820156D01*
X125503610Y-97009198D01*
X125503610Y-97009200D01*
X125484247Y-97205800D01*
X125503610Y-97402399D01*
X125503610Y-97402401D01*
X125560955Y-97591443D01*
X125560956Y-97591447D01*
X125601721Y-97667713D01*
X125645174Y-97749009D01*
X125654086Y-97765681D01*
X125654089Y-97765685D01*
X125779410Y-97918389D01*
X125932114Y-98043710D01*
X125932118Y-98043713D01*
X125932122Y-98043716D01*
X126102131Y-98134587D01*
X126106352Y-98136843D01*
X126106356Y-98136844D01*
X126119503Y-98140832D01*
X126295397Y-98194189D01*
X126492000Y-98213553D01*
X126688603Y-98194189D01*
X126877650Y-98136842D01*
X127051878Y-98043716D01*
X127204589Y-97918389D01*
X127208357Y-97913798D01*
X127225770Y-97892581D01*
X127270035Y-97866376D01*
X127320787Y-97874756D01*
X127354280Y-97913798D01*
X127359100Y-97940287D01*
X127359100Y-99011312D01*
X127341507Y-99059650D01*
X127296958Y-99085370D01*
X127246300Y-99076437D01*
X127225770Y-99059019D01*
X127204587Y-99033208D01*
X127051885Y-98907889D01*
X127051881Y-98907886D01*
X127051879Y-98907885D01*
X127051878Y-98907884D01*
X126917657Y-98836142D01*
X126877647Y-98814756D01*
X126877643Y-98814755D01*
X126688600Y-98757410D01*
X126492000Y-98738047D01*
X126295400Y-98757410D01*
X126295398Y-98757410D01*
X126106356Y-98814755D01*
X126106352Y-98814756D01*
X125932118Y-98907886D01*
X125932114Y-98907889D01*
X125779410Y-99033210D01*
X125654089Y-99185914D01*
X125654086Y-99185918D01*
X125560956Y-99360152D01*
X125560955Y-99360156D01*
X125503610Y-99549198D01*
X125503610Y-99549200D01*
X125484247Y-99745800D01*
X125503610Y-99942399D01*
X125503610Y-99942401D01*
X125560955Y-100131443D01*
X125560956Y-100131447D01*
X125607521Y-100218564D01*
X125652492Y-100302700D01*
X125654086Y-100305681D01*
X125654089Y-100305685D01*
X125779410Y-100458389D01*
X125932114Y-100583710D01*
X125932118Y-100583713D01*
X125932122Y-100583716D01*
X126106350Y-100676842D01*
X126106352Y-100676843D01*
X126106356Y-100676844D01*
X126114001Y-100679163D01*
X126295397Y-100734189D01*
X126492000Y-100753553D01*
X126688603Y-100734189D01*
X126877650Y-100676842D01*
X127051878Y-100583716D01*
X127204589Y-100458389D01*
X127208357Y-100453798D01*
X127225770Y-100432581D01*
X127270035Y-100406376D01*
X127320787Y-100414756D01*
X127354280Y-100453798D01*
X127359100Y-100480287D01*
X127359100Y-101551312D01*
X127341507Y-101599650D01*
X127296958Y-101625370D01*
X127246300Y-101616437D01*
X127225770Y-101599019D01*
X127204587Y-101573208D01*
X127051885Y-101447889D01*
X127051881Y-101447886D01*
X127051879Y-101447885D01*
X127051878Y-101447884D01*
X126917657Y-101376142D01*
X126877647Y-101354756D01*
X126877643Y-101354755D01*
X126688600Y-101297410D01*
X126492000Y-101278047D01*
X126295400Y-101297410D01*
X126295398Y-101297410D01*
X126106356Y-101354755D01*
X126106352Y-101354756D01*
X125932118Y-101447886D01*
X125932114Y-101447889D01*
X125779410Y-101573210D01*
X125654089Y-101725914D01*
X125654086Y-101725918D01*
X125560956Y-101900152D01*
X125560955Y-101900156D01*
X125503610Y-102089198D01*
X125503610Y-102089200D01*
X125484247Y-102285800D01*
X125503610Y-102482399D01*
X125503610Y-102482401D01*
X125560955Y-102671443D01*
X125560956Y-102671447D01*
X125654086Y-102845681D01*
X125654089Y-102845685D01*
X125779410Y-102998389D01*
X125932114Y-103123710D01*
X125932118Y-103123713D01*
X125932122Y-103123716D01*
X126102131Y-103214587D01*
X126106352Y-103216843D01*
X126106356Y-103216844D01*
X126109155Y-103217693D01*
X126295397Y-103274189D01*
X126492000Y-103293553D01*
X126688603Y-103274189D01*
X126877650Y-103216842D01*
X127051878Y-103123716D01*
X127204589Y-102998389D01*
X127219854Y-102979789D01*
X127225770Y-102972581D01*
X127270035Y-102946376D01*
X127320787Y-102954756D01*
X127354280Y-102993798D01*
X127359100Y-103020287D01*
X127359100Y-104091312D01*
X127341507Y-104139650D01*
X127296958Y-104165370D01*
X127246300Y-104156437D01*
X127225770Y-104139019D01*
X127204587Y-104113208D01*
X127051885Y-103987889D01*
X127051881Y-103987886D01*
X127051879Y-103987885D01*
X127051878Y-103987884D01*
X126948418Y-103932584D01*
X126877647Y-103894756D01*
X126877643Y-103894755D01*
X126688600Y-103837410D01*
X126492000Y-103818047D01*
X126295400Y-103837410D01*
X126295398Y-103837410D01*
X126106356Y-103894755D01*
X126106352Y-103894756D01*
X125932118Y-103987886D01*
X125932114Y-103987889D01*
X125779410Y-104113210D01*
X125654089Y-104265914D01*
X125654086Y-104265918D01*
X125560956Y-104440152D01*
X125560955Y-104440156D01*
X125503610Y-104629198D01*
X125503610Y-104629200D01*
X125484247Y-104825800D01*
X125503610Y-105022399D01*
X125503610Y-105022401D01*
X125560955Y-105211443D01*
X125560956Y-105211447D01*
X125604754Y-105293387D01*
X125645268Y-105369185D01*
X125654086Y-105385681D01*
X125654089Y-105385685D01*
X125779410Y-105538389D01*
X125805219Y-105559570D01*
X125831424Y-105603835D01*
X125823044Y-105654587D01*
X125784002Y-105688080D01*
X125757513Y-105692900D01*
X124686487Y-105692900D01*
X124638149Y-105675307D01*
X124612429Y-105630758D01*
X124621362Y-105580100D01*
X124638781Y-105559570D01*
X124664589Y-105538389D01*
X124754819Y-105428444D01*
X124789916Y-105385678D01*
X124883042Y-105211450D01*
X124940389Y-105022403D01*
X124959753Y-104825800D01*
X124940389Y-104629197D01*
X124883042Y-104440150D01*
X124789916Y-104265922D01*
X124789913Y-104265918D01*
X124789910Y-104265914D01*
X124664589Y-104113210D01*
X124511885Y-103987889D01*
X124511881Y-103987886D01*
X124511879Y-103987885D01*
X124511878Y-103987884D01*
X124408418Y-103932584D01*
X124337647Y-103894756D01*
X124337643Y-103894755D01*
X124148600Y-103837410D01*
X123952000Y-103818047D01*
X123755400Y-103837410D01*
X123755398Y-103837410D01*
X123566356Y-103894755D01*
X123566352Y-103894756D01*
X123392118Y-103987886D01*
X123392114Y-103987889D01*
X123239410Y-104113210D01*
X123114089Y-104265914D01*
X123114086Y-104265918D01*
X123020956Y-104440152D01*
X123020955Y-104440156D01*
X122963610Y-104629198D01*
X122963610Y-104629200D01*
X122944247Y-104825800D01*
X122963610Y-105022399D01*
X122963610Y-105022401D01*
X123020955Y-105211443D01*
X123020956Y-105211447D01*
X123064754Y-105293387D01*
X123105268Y-105369185D01*
X123114086Y-105385681D01*
X123114089Y-105385685D01*
X123239410Y-105538389D01*
X123265219Y-105559570D01*
X123291424Y-105603835D01*
X123283044Y-105654587D01*
X123244002Y-105688080D01*
X123217513Y-105692900D01*
X122146487Y-105692900D01*
X122098149Y-105675307D01*
X122072429Y-105630758D01*
X122081362Y-105580100D01*
X122098781Y-105559570D01*
X122124589Y-105538389D01*
X122214819Y-105428444D01*
X122249916Y-105385678D01*
X122343042Y-105211450D01*
X122400389Y-105022403D01*
X122419753Y-104825800D01*
X122400389Y-104629197D01*
X122343042Y-104440150D01*
X122249916Y-104265922D01*
X122249913Y-104265918D01*
X122249910Y-104265914D01*
X122124589Y-104113210D01*
X121971885Y-103987889D01*
X121971881Y-103987886D01*
X121971879Y-103987885D01*
X121971878Y-103987884D01*
X121868418Y-103932584D01*
X121797647Y-103894756D01*
X121797643Y-103894755D01*
X121608600Y-103837410D01*
X121412000Y-103818047D01*
X121215400Y-103837410D01*
X121215398Y-103837410D01*
X121026356Y-103894755D01*
X121026352Y-103894756D01*
X120852118Y-103987886D01*
X120852114Y-103987889D01*
X120699410Y-104113210D01*
X120574089Y-104265914D01*
X120574086Y-104265918D01*
X120480956Y-104440152D01*
X120480955Y-104440156D01*
X120423610Y-104629198D01*
X120423610Y-104629200D01*
X120404247Y-104825800D01*
X120423610Y-105022399D01*
X120423610Y-105022401D01*
X120480955Y-105211443D01*
X120480956Y-105211447D01*
X120524754Y-105293387D01*
X120565268Y-105369185D01*
X120574086Y-105385681D01*
X120574089Y-105385685D01*
X120699410Y-105538389D01*
X120725219Y-105559570D01*
X120751424Y-105603835D01*
X120743044Y-105654587D01*
X120704002Y-105688080D01*
X120677513Y-105692900D01*
X119606487Y-105692900D01*
X119558149Y-105675307D01*
X119532429Y-105630758D01*
X119541362Y-105580100D01*
X119558781Y-105559570D01*
X119584589Y-105538389D01*
X119674819Y-105428444D01*
X119709916Y-105385678D01*
X119803042Y-105211450D01*
X119860389Y-105022403D01*
X119879753Y-104825800D01*
X119860389Y-104629197D01*
X119803042Y-104440150D01*
X119709916Y-104265922D01*
X119709913Y-104265918D01*
X119709910Y-104265914D01*
X119584589Y-104113210D01*
X119431885Y-103987889D01*
X119431881Y-103987886D01*
X119431879Y-103987885D01*
X119431878Y-103987884D01*
X119328418Y-103932584D01*
X119257647Y-103894756D01*
X119257643Y-103894755D01*
X119068600Y-103837410D01*
X118872000Y-103818047D01*
X118675400Y-103837410D01*
X118675398Y-103837410D01*
X118486356Y-103894755D01*
X118486352Y-103894756D01*
X118312118Y-103987886D01*
X118312114Y-103987889D01*
X118159410Y-104113210D01*
X118034089Y-104265914D01*
X118034086Y-104265918D01*
X117940956Y-104440152D01*
X117940955Y-104440156D01*
X117883610Y-104629198D01*
X117883610Y-104629200D01*
X117864247Y-104825800D01*
X117883610Y-105022399D01*
X117883610Y-105022401D01*
X117940955Y-105211443D01*
X117940956Y-105211447D01*
X117984754Y-105293387D01*
X118025268Y-105369185D01*
X118034086Y-105385681D01*
X118034089Y-105385685D01*
X118159410Y-105538389D01*
X118185219Y-105559570D01*
X118211424Y-105603835D01*
X118203044Y-105654587D01*
X118164002Y-105688080D01*
X118137513Y-105692900D01*
X117066487Y-105692900D01*
X117018149Y-105675307D01*
X116992429Y-105630758D01*
X117001362Y-105580100D01*
X117018781Y-105559570D01*
X117044589Y-105538389D01*
X117134819Y-105428444D01*
X117169916Y-105385678D01*
X117263042Y-105211450D01*
X117320389Y-105022403D01*
X117339753Y-104825800D01*
X117320389Y-104629197D01*
X117263042Y-104440150D01*
X117169916Y-104265922D01*
X117169913Y-104265918D01*
X117169910Y-104265914D01*
X117044589Y-104113210D01*
X116891885Y-103987889D01*
X116891881Y-103987886D01*
X116891879Y-103987885D01*
X116891878Y-103987884D01*
X116788418Y-103932584D01*
X116717647Y-103894756D01*
X116717643Y-103894755D01*
X116528600Y-103837410D01*
X116332000Y-103818047D01*
X116135400Y-103837410D01*
X116135398Y-103837410D01*
X115946356Y-103894755D01*
X115946352Y-103894756D01*
X115772118Y-103987886D01*
X115772114Y-103987889D01*
X115619410Y-104113210D01*
X115494089Y-104265914D01*
X115494086Y-104265918D01*
X115400956Y-104440152D01*
X115400955Y-104440156D01*
X115343610Y-104629198D01*
X115343610Y-104629200D01*
X115324247Y-104825800D01*
X115343610Y-105022399D01*
X115343610Y-105022401D01*
X115400955Y-105211443D01*
X115400956Y-105211447D01*
X115444754Y-105293387D01*
X115485268Y-105369185D01*
X115494086Y-105385681D01*
X115494089Y-105385685D01*
X115619410Y-105538389D01*
X115645219Y-105559570D01*
X115671424Y-105603835D01*
X115663044Y-105654587D01*
X115624002Y-105688080D01*
X115597513Y-105692900D01*
X114526487Y-105692900D01*
X114478149Y-105675307D01*
X114452429Y-105630758D01*
X114461362Y-105580100D01*
X114478781Y-105559570D01*
X114504589Y-105538389D01*
X114594819Y-105428444D01*
X114629916Y-105385678D01*
X114723042Y-105211450D01*
X114780389Y-105022403D01*
X114799753Y-104825800D01*
X114780389Y-104629197D01*
X114723042Y-104440150D01*
X114629916Y-104265922D01*
X114629913Y-104265918D01*
X114629910Y-104265914D01*
X114504589Y-104113210D01*
X114351885Y-103987889D01*
X114351881Y-103987886D01*
X114351879Y-103987885D01*
X114351878Y-103987884D01*
X114248418Y-103932584D01*
X114177647Y-103894756D01*
X114177643Y-103894755D01*
X113988600Y-103837410D01*
X113792000Y-103818047D01*
X113595400Y-103837410D01*
X113595398Y-103837410D01*
X113406356Y-103894755D01*
X113406352Y-103894756D01*
X113232118Y-103987886D01*
X113232114Y-103987889D01*
X113079410Y-104113210D01*
X112954089Y-104265914D01*
X112954086Y-104265918D01*
X112860956Y-104440152D01*
X112860955Y-104440156D01*
X112803610Y-104629198D01*
X112803610Y-104629200D01*
X112784247Y-104825800D01*
X112803610Y-105022399D01*
X112803610Y-105022401D01*
X112860955Y-105211443D01*
X112860956Y-105211447D01*
X112904754Y-105293387D01*
X112945268Y-105369185D01*
X112954086Y-105385681D01*
X112954089Y-105385685D01*
X113079410Y-105538389D01*
X113105219Y-105559570D01*
X113131424Y-105603835D01*
X113123044Y-105654587D01*
X113084002Y-105688080D01*
X113057513Y-105692900D01*
X112720034Y-105692900D01*
X112671696Y-105675307D01*
X112666860Y-105670874D01*
X112276925Y-105280939D01*
X112255185Y-105234319D01*
X112254899Y-105227765D01*
X112254899Y-103960744D01*
X112254899Y-103960743D01*
X112246028Y-103916142D01*
X112240081Y-103907242D01*
X112212235Y-103865567D01*
X112212231Y-103865564D01*
X112161658Y-103831772D01*
X112161656Y-103831771D01*
X112117057Y-103822900D01*
X110386944Y-103822900D01*
X110386942Y-103822901D01*
X110342340Y-103831772D01*
X110291767Y-103865564D01*
X110257972Y-103916142D01*
X110257971Y-103916143D01*
X110249100Y-103960742D01*
X101564657Y-103960742D01*
X101567616Y-101420742D01*
X110249100Y-101420742D01*
X110249100Y-103150855D01*
X110249101Y-103150857D01*
X110257972Y-103195459D01*
X110291764Y-103246032D01*
X110291765Y-103246032D01*
X110291766Y-103246034D01*
X110342342Y-103279828D01*
X110386943Y-103288700D01*
X112117056Y-103288699D01*
X112161658Y-103279828D01*
X112212234Y-103246034D01*
X112246028Y-103195458D01*
X112254900Y-103150857D01*
X112254899Y-102285800D01*
X112784247Y-102285800D01*
X112803610Y-102482399D01*
X112803610Y-102482401D01*
X112860955Y-102671443D01*
X112860956Y-102671447D01*
X112954086Y-102845681D01*
X112954089Y-102845685D01*
X113079410Y-102998389D01*
X113232114Y-103123710D01*
X113232118Y-103123713D01*
X113232122Y-103123716D01*
X113402131Y-103214587D01*
X113406352Y-103216843D01*
X113406356Y-103216844D01*
X113409155Y-103217693D01*
X113595397Y-103274189D01*
X113792000Y-103293553D01*
X113988603Y-103274189D01*
X114177650Y-103216842D01*
X114351878Y-103123716D01*
X114504589Y-102998389D01*
X114629916Y-102845678D01*
X114723042Y-102671450D01*
X114780389Y-102482403D01*
X114799753Y-102285800D01*
X115324247Y-102285800D01*
X115343610Y-102482399D01*
X115343610Y-102482401D01*
X115400955Y-102671443D01*
X115400956Y-102671447D01*
X115494086Y-102845681D01*
X115494089Y-102845685D01*
X115619410Y-102998389D01*
X115772114Y-103123710D01*
X115772118Y-103123713D01*
X115772122Y-103123716D01*
X115942131Y-103214587D01*
X115946352Y-103216843D01*
X115946356Y-103216844D01*
X115949155Y-103217693D01*
X116135397Y-103274189D01*
X116332000Y-103293553D01*
X116528603Y-103274189D01*
X116717650Y-103216842D01*
X116891878Y-103123716D01*
X117044589Y-102998389D01*
X117169916Y-102845678D01*
X117263042Y-102671450D01*
X117320389Y-102482403D01*
X117339753Y-102285800D01*
X117864247Y-102285800D01*
X117883610Y-102482399D01*
X117883610Y-102482401D01*
X117940955Y-102671443D01*
X117940956Y-102671447D01*
X118034086Y-102845681D01*
X118034089Y-102845685D01*
X118159410Y-102998389D01*
X118312114Y-103123710D01*
X118312118Y-103123713D01*
X118312122Y-103123716D01*
X118482131Y-103214587D01*
X118486352Y-103216843D01*
X118486356Y-103216844D01*
X118489155Y-103217693D01*
X118675397Y-103274189D01*
X118872000Y-103293553D01*
X119068603Y-103274189D01*
X119257650Y-103216842D01*
X119431878Y-103123716D01*
X119584589Y-102998389D01*
X119709916Y-102845678D01*
X119803042Y-102671450D01*
X119860389Y-102482403D01*
X119879753Y-102285800D01*
X120404247Y-102285800D01*
X120423610Y-102482399D01*
X120423610Y-102482401D01*
X120480955Y-102671443D01*
X120480956Y-102671447D01*
X120574086Y-102845681D01*
X120574089Y-102845685D01*
X120699410Y-102998389D01*
X120852114Y-103123710D01*
X120852118Y-103123713D01*
X120852122Y-103123716D01*
X121022131Y-103214587D01*
X121026352Y-103216843D01*
X121026356Y-103216844D01*
X121029155Y-103217693D01*
X121215397Y-103274189D01*
X121412000Y-103293553D01*
X121608603Y-103274189D01*
X121797650Y-103216842D01*
X121971878Y-103123716D01*
X122124589Y-102998389D01*
X122249916Y-102845678D01*
X122343042Y-102671450D01*
X122400389Y-102482403D01*
X122419753Y-102285800D01*
X122944247Y-102285800D01*
X122963610Y-102482399D01*
X122963610Y-102482401D01*
X123020955Y-102671443D01*
X123020956Y-102671447D01*
X123114086Y-102845681D01*
X123114089Y-102845685D01*
X123239410Y-102998389D01*
X123392114Y-103123710D01*
X123392118Y-103123713D01*
X123392122Y-103123716D01*
X123562131Y-103214587D01*
X123566352Y-103216843D01*
X123566356Y-103216844D01*
X123569155Y-103217693D01*
X123755397Y-103274189D01*
X123952000Y-103293553D01*
X124148603Y-103274189D01*
X124337650Y-103216842D01*
X124511878Y-103123716D01*
X124664589Y-102998389D01*
X124789916Y-102845678D01*
X124883042Y-102671450D01*
X124940389Y-102482403D01*
X124959753Y-102285800D01*
X124940389Y-102089197D01*
X124883042Y-101900150D01*
X124789916Y-101725922D01*
X124789913Y-101725918D01*
X124789910Y-101725914D01*
X124664589Y-101573210D01*
X124511885Y-101447889D01*
X124511881Y-101447886D01*
X124511879Y-101447885D01*
X124511878Y-101447884D01*
X124377657Y-101376142D01*
X124337647Y-101354756D01*
X124337643Y-101354755D01*
X124148600Y-101297410D01*
X123952000Y-101278047D01*
X123755400Y-101297410D01*
X123755398Y-101297410D01*
X123566356Y-101354755D01*
X123566352Y-101354756D01*
X123392118Y-101447886D01*
X123392114Y-101447889D01*
X123239410Y-101573210D01*
X123114089Y-101725914D01*
X123114086Y-101725918D01*
X123020956Y-101900152D01*
X123020955Y-101900156D01*
X122963610Y-102089198D01*
X122963610Y-102089200D01*
X122944247Y-102285800D01*
X122419753Y-102285800D01*
X122400389Y-102089197D01*
X122343042Y-101900150D01*
X122249916Y-101725922D01*
X122249913Y-101725918D01*
X122249910Y-101725914D01*
X122124589Y-101573210D01*
X121971885Y-101447889D01*
X121971881Y-101447886D01*
X121971879Y-101447885D01*
X121971878Y-101447884D01*
X121837657Y-101376142D01*
X121797647Y-101354756D01*
X121797643Y-101354755D01*
X121608600Y-101297410D01*
X121412000Y-101278047D01*
X121215400Y-101297410D01*
X121215398Y-101297410D01*
X121026356Y-101354755D01*
X121026352Y-101354756D01*
X120852118Y-101447886D01*
X120852114Y-101447889D01*
X120699410Y-101573210D01*
X120574089Y-101725914D01*
X120574086Y-101725918D01*
X120480956Y-101900152D01*
X120480955Y-101900156D01*
X120423610Y-102089198D01*
X120423610Y-102089200D01*
X120404247Y-102285800D01*
X119879753Y-102285800D01*
X119860389Y-102089197D01*
X119803042Y-101900150D01*
X119709916Y-101725922D01*
X119709913Y-101725918D01*
X119709910Y-101725914D01*
X119584589Y-101573210D01*
X119431885Y-101447889D01*
X119431881Y-101447886D01*
X119431879Y-101447885D01*
X119431878Y-101447884D01*
X119297657Y-101376142D01*
X119257647Y-101354756D01*
X119257643Y-101354755D01*
X119068600Y-101297410D01*
X118872000Y-101278047D01*
X118675400Y-101297410D01*
X118675398Y-101297410D01*
X118486356Y-101354755D01*
X118486352Y-101354756D01*
X118312118Y-101447886D01*
X118312114Y-101447889D01*
X118159410Y-101573210D01*
X118034089Y-101725914D01*
X118034086Y-101725918D01*
X117940956Y-101900152D01*
X117940955Y-101900156D01*
X117883610Y-102089198D01*
X117883610Y-102089200D01*
X117864247Y-102285800D01*
X117339753Y-102285800D01*
X117320389Y-102089197D01*
X117263042Y-101900150D01*
X117169916Y-101725922D01*
X117169913Y-101725918D01*
X117169910Y-101725914D01*
X117044589Y-101573210D01*
X116891885Y-101447889D01*
X116891881Y-101447886D01*
X116891879Y-101447885D01*
X116891878Y-101447884D01*
X116757657Y-101376142D01*
X116717647Y-101354756D01*
X116717643Y-101354755D01*
X116528600Y-101297410D01*
X116332000Y-101278047D01*
X116135400Y-101297410D01*
X116135398Y-101297410D01*
X115946356Y-101354755D01*
X115946352Y-101354756D01*
X115772118Y-101447886D01*
X115772114Y-101447889D01*
X115619410Y-101573210D01*
X115494089Y-101725914D01*
X115494086Y-101725918D01*
X115400956Y-101900152D01*
X115400955Y-101900156D01*
X115343610Y-102089198D01*
X115343610Y-102089200D01*
X115324247Y-102285800D01*
X114799753Y-102285800D01*
X114780389Y-102089197D01*
X114723042Y-101900150D01*
X114629916Y-101725922D01*
X114629913Y-101725918D01*
X114629910Y-101725914D01*
X114504589Y-101573210D01*
X114351885Y-101447889D01*
X114351881Y-101447886D01*
X114351879Y-101447885D01*
X114351878Y-101447884D01*
X114217657Y-101376142D01*
X114177647Y-101354756D01*
X114177643Y-101354755D01*
X113988600Y-101297410D01*
X113792000Y-101278047D01*
X113595400Y-101297410D01*
X113595398Y-101297410D01*
X113406356Y-101354755D01*
X113406352Y-101354756D01*
X113232118Y-101447886D01*
X113232114Y-101447889D01*
X113079410Y-101573210D01*
X112954089Y-101725914D01*
X112954086Y-101725918D01*
X112860956Y-101900152D01*
X112860955Y-101900156D01*
X112803610Y-102089198D01*
X112803610Y-102089200D01*
X112784247Y-102285800D01*
X112254899Y-102285800D01*
X112254899Y-101420744D01*
X112246028Y-101376142D01*
X112231738Y-101354756D01*
X112212235Y-101325567D01*
X112212231Y-101325564D01*
X112161658Y-101291772D01*
X112161656Y-101291771D01*
X112117057Y-101282900D01*
X110386944Y-101282900D01*
X110386942Y-101282901D01*
X110342340Y-101291772D01*
X110291767Y-101325564D01*
X110257972Y-101376142D01*
X110257971Y-101376143D01*
X110249100Y-101420742D01*
X101567616Y-101420742D01*
X101573770Y-96137911D01*
X101591420Y-96089595D01*
X101635998Y-96063927D01*
X101648970Y-96062800D01*
X109982000Y-96062800D01*
X109982000Y-90931000D01*
X109999593Y-90882662D01*
X110044142Y-90856942D01*
X110057200Y-90855800D01*
X122222487Y-90855800D01*
X122270825Y-90873393D01*
X122275661Y-90877826D01*
X122436982Y-91039147D01*
X122437003Y-91039170D01*
X122496010Y-91098177D01*
X122496013Y-91098179D01*
X122496015Y-91098181D01*
X122526469Y-91115763D01*
X122565082Y-91138057D01*
X122565084Y-91138057D01*
X122565085Y-91138058D01*
X122642122Y-91158700D01*
X122721878Y-91158700D01*
X127732386Y-91158700D01*
X127780724Y-91176293D01*
X127785560Y-91180726D01*
X128580074Y-91975240D01*
X128601814Y-92021860D01*
X128602100Y-92028414D01*
X128602100Y-94621302D01*
X128602099Y-94621320D01*
X128602099Y-94705678D01*
X128622740Y-94782713D01*
X128662618Y-94851783D01*
X128662622Y-94851789D01*
X129928669Y-96117835D01*
X129985065Y-96174231D01*
X130012032Y-96189800D01*
X130054132Y-96214107D01*
X130054134Y-96214107D01*
X130054135Y-96214108D01*
X130131172Y-96234750D01*
X130964176Y-96234750D01*
X131012514Y-96252343D01*
X131038234Y-96296892D01*
X131029301Y-96347550D01*
X131011882Y-96368080D01*
X130859410Y-96493210D01*
X130734089Y-96645914D01*
X130734086Y-96645918D01*
X130640956Y-96820152D01*
X130640955Y-96820156D01*
X130583610Y-97009198D01*
X130583610Y-97009200D01*
X130564247Y-97205800D01*
X130583610Y-97402399D01*
X130583610Y-97402401D01*
X130640955Y-97591443D01*
X130640956Y-97591447D01*
X130681721Y-97667713D01*
X130725174Y-97749009D01*
X130734086Y-97765681D01*
X130734089Y-97765685D01*
X130859410Y-97918389D01*
X131012114Y-98043710D01*
X131012118Y-98043713D01*
X131012122Y-98043716D01*
X131182131Y-98134587D01*
X131186352Y-98136843D01*
X131186356Y-98136844D01*
X131199503Y-98140832D01*
X131375397Y-98194189D01*
X131572000Y-98213553D01*
X131768603Y-98194189D01*
X131957650Y-98136842D01*
X131984726Y-98122368D01*
X132035649Y-98115098D01*
X132073350Y-98135515D01*
X132517074Y-98579239D01*
X132538814Y-98625859D01*
X132539100Y-98632413D01*
X132539100Y-98970124D01*
X132521507Y-99018462D01*
X132476958Y-99044182D01*
X132426300Y-99035249D01*
X132403889Y-99015442D01*
X132391364Y-98998856D01*
X132391361Y-98998853D01*
X132240165Y-98861018D01*
X132240161Y-98861016D01*
X132066207Y-98753308D01*
X131875418Y-98679395D01*
X131875419Y-98679395D01*
X131699000Y-98646417D01*
X131699000Y-99262191D01*
X131637826Y-99245800D01*
X131506174Y-99245800D01*
X131445000Y-99262191D01*
X131445000Y-98646417D01*
X131268580Y-98679395D01*
X131077792Y-98753308D01*
X130903838Y-98861016D01*
X130903834Y-98861018D01*
X130752638Y-98998853D01*
X130752635Y-98998856D01*
X130629336Y-99162132D01*
X130538140Y-99345279D01*
X130538138Y-99345282D01*
X130482149Y-99542064D01*
X130482148Y-99542070D01*
X130475038Y-99618800D01*
X131088392Y-99618800D01*
X131072000Y-99679974D01*
X131072000Y-99811626D01*
X131088392Y-99872800D01*
X130475038Y-99872800D01*
X130482148Y-99949529D01*
X130482149Y-99949535D01*
X130538138Y-100146317D01*
X130538140Y-100146320D01*
X130629336Y-100329467D01*
X130752635Y-100492743D01*
X130752638Y-100492746D01*
X130903834Y-100630581D01*
X130903838Y-100630583D01*
X131077792Y-100738291D01*
X131268583Y-100812205D01*
X131444999Y-100845181D01*
X131445000Y-100845181D01*
X131445000Y-100229408D01*
X131506174Y-100245800D01*
X131637826Y-100245800D01*
X131699000Y-100229408D01*
X131699000Y-100845181D01*
X131875416Y-100812205D01*
X132066207Y-100738291D01*
X132240161Y-100630583D01*
X132240165Y-100630581D01*
X132391361Y-100492746D01*
X132391362Y-100492745D01*
X132403888Y-100476158D01*
X132447057Y-100448185D01*
X132498107Y-100454506D01*
X132533151Y-100492161D01*
X132539100Y-100521475D01*
X132539100Y-100590302D01*
X132539099Y-100590320D01*
X132539099Y-100674678D01*
X132559740Y-100751713D01*
X132593449Y-100810099D01*
X132599619Y-100820785D01*
X133231992Y-101453157D01*
X133232013Y-101453180D01*
X133291010Y-101512177D01*
X133291013Y-101512179D01*
X133291015Y-101512181D01*
X133331059Y-101535300D01*
X133360086Y-101552059D01*
X133437121Y-101572701D01*
X133437122Y-101572701D01*
X133521481Y-101572701D01*
X133521497Y-101572700D01*
X142083386Y-101572700D01*
X142131724Y-101590293D01*
X142136560Y-101594726D01*
X144283618Y-103741784D01*
X144283619Y-103741785D01*
X144340015Y-103798181D01*
X144358235Y-103808700D01*
X144409082Y-103838057D01*
X144409084Y-103838057D01*
X144409085Y-103838058D01*
X144486122Y-103858700D01*
X145737766Y-103858700D01*
X145786104Y-103876293D01*
X145811824Y-103920842D01*
X145811521Y-103948572D01*
X145809100Y-103960742D01*
X145809100Y-105690855D01*
X145809101Y-105690857D01*
X145817972Y-105735459D01*
X145851764Y-105786032D01*
X145851765Y-105786032D01*
X145851766Y-105786034D01*
X145902342Y-105819828D01*
X145946943Y-105828700D01*
X147355385Y-105828699D01*
X147403723Y-105846292D01*
X147408559Y-105850725D01*
X148531010Y-106973177D01*
X148531013Y-106973179D01*
X148531015Y-106973181D01*
X148570893Y-106996204D01*
X148600086Y-107013059D01*
X148677121Y-107033701D01*
X148677122Y-107033701D01*
X148761481Y-107033701D01*
X148761497Y-107033700D01*
X170643503Y-107033700D01*
X170643519Y-107033701D01*
X170648122Y-107033701D01*
X170727879Y-107033701D01*
X170804913Y-107013059D01*
X170817467Y-107005811D01*
X170873985Y-106973181D01*
X171403439Y-106443725D01*
X171450059Y-106421986D01*
X171456613Y-106421700D01*
X171515117Y-106421700D01*
X171640073Y-106385009D01*
X171640073Y-106385008D01*
X171640076Y-106385008D01*
X171741740Y-106319673D01*
X171749633Y-106314601D01*
X171749633Y-106314600D01*
X171749636Y-106314599D01*
X171834921Y-106216174D01*
X171889023Y-106097709D01*
X171907557Y-105968800D01*
X171889023Y-105839891D01*
X171886128Y-105833553D01*
X171834921Y-105721426D01*
X171834919Y-105721423D01*
X171756357Y-105630758D01*
X171749636Y-105623001D01*
X171749635Y-105623000D01*
X171749633Y-105622998D01*
X171640073Y-105552590D01*
X171515117Y-105515900D01*
X171384883Y-105515900D01*
X171259926Y-105552590D01*
X171150366Y-105622998D01*
X171065080Y-105721423D01*
X171065078Y-105721426D01*
X171010977Y-105839888D01*
X170991678Y-105974123D01*
X170989887Y-105973865D01*
X170974850Y-106015181D01*
X170970417Y-106020017D01*
X170584560Y-106405874D01*
X170537940Y-106427614D01*
X170531386Y-106427900D01*
X167847105Y-106427900D01*
X167798767Y-106410307D01*
X167773047Y-106365758D01*
X167781980Y-106315100D01*
X167793931Y-106299526D01*
X167861620Y-106231836D01*
X167861629Y-106231823D01*
X168418255Y-105675199D01*
X168418257Y-105675199D01*
X168489399Y-105604057D01*
X168494511Y-105591714D01*
X168501742Y-105574260D01*
X168511404Y-105550930D01*
X168527901Y-105511105D01*
X168527901Y-105410495D01*
X168527901Y-105404440D01*
X168527900Y-105404426D01*
X168527900Y-105324658D01*
X168545493Y-105276320D01*
X168590042Y-105250600D01*
X168640700Y-105259533D01*
X168670416Y-105291139D01*
X168729336Y-105409467D01*
X168852635Y-105572743D01*
X168852638Y-105572746D01*
X169003834Y-105710581D01*
X169003838Y-105710583D01*
X169177792Y-105818291D01*
X169368583Y-105892205D01*
X169544999Y-105925181D01*
X169545000Y-105925181D01*
X169545000Y-105309408D01*
X169606174Y-105325800D01*
X169737826Y-105325800D01*
X169799000Y-105309408D01*
X169799000Y-105925181D01*
X169975416Y-105892205D01*
X170166207Y-105818291D01*
X170340161Y-105710583D01*
X170340165Y-105710581D01*
X170491361Y-105572746D01*
X170491364Y-105572743D01*
X170614663Y-105409467D01*
X170705859Y-105226320D01*
X170705861Y-105226317D01*
X170761850Y-105029535D01*
X170761851Y-105029529D01*
X170768962Y-104952800D01*
X170155608Y-104952800D01*
X170172000Y-104891626D01*
X170172000Y-104759974D01*
X170155608Y-104698800D01*
X170768962Y-104698800D01*
X170761851Y-104622070D01*
X170761850Y-104622064D01*
X170705861Y-104425282D01*
X170705859Y-104425279D01*
X170614663Y-104242132D01*
X170491364Y-104078856D01*
X170491361Y-104078853D01*
X170338470Y-103939473D01*
X170314601Y-103893907D01*
X170325606Y-103843658D01*
X170366335Y-103812239D01*
X170389132Y-103808700D01*
X171695098Y-103808700D01*
X171743436Y-103826293D01*
X171748272Y-103830726D01*
X171994383Y-104076837D01*
X172016123Y-104123457D01*
X172015644Y-104140712D01*
X172008443Y-104190799D01*
X172026977Y-104319711D01*
X172081078Y-104438173D01*
X172081080Y-104438176D01*
X172166366Y-104536601D01*
X172275926Y-104607009D01*
X172400883Y-104643700D01*
X172531117Y-104643700D01*
X172656073Y-104607009D01*
X172656073Y-104607008D01*
X172656076Y-104607008D01*
X172765636Y-104536599D01*
X172850921Y-104438174D01*
X172905023Y-104319709D01*
X172923557Y-104190800D01*
X172905023Y-104061891D01*
X172882056Y-104011602D01*
X172850921Y-103943426D01*
X172850919Y-103943423D01*
X172783456Y-103865567D01*
X172765636Y-103845001D01*
X172765635Y-103845000D01*
X172765633Y-103844998D01*
X172656073Y-103774590D01*
X172531117Y-103737900D01*
X172401904Y-103737900D01*
X172353566Y-103720307D01*
X172348730Y-103715875D01*
X172051594Y-103418740D01*
X172051583Y-103418726D01*
X171974258Y-103341401D01*
X171919806Y-103318847D01*
X171906702Y-103313419D01*
X171881305Y-103302899D01*
X171780695Y-103302899D01*
X171771943Y-103302899D01*
X171771935Y-103302900D01*
X170389132Y-103302900D01*
X170340794Y-103285307D01*
X170315074Y-103240758D01*
X170324007Y-103190100D01*
X170338470Y-103172127D01*
X170491361Y-103032746D01*
X170491364Y-103032743D01*
X170614663Y-102869467D01*
X170705859Y-102686320D01*
X170705861Y-102686317D01*
X170761850Y-102489535D01*
X170761851Y-102489529D01*
X170768962Y-102412800D01*
X170155608Y-102412800D01*
X170172000Y-102351626D01*
X170172000Y-102219974D01*
X170155608Y-102158800D01*
X170768962Y-102158800D01*
X170761851Y-102082070D01*
X170761850Y-102082064D01*
X170705861Y-101885282D01*
X170705859Y-101885279D01*
X170614663Y-101702132D01*
X170491364Y-101538856D01*
X170491361Y-101538853D01*
X170340165Y-101401018D01*
X170340161Y-101401016D01*
X170166207Y-101293308D01*
X169975418Y-101219395D01*
X169975419Y-101219395D01*
X169799000Y-101186417D01*
X169799000Y-101802191D01*
X169737826Y-101785800D01*
X169606174Y-101785800D01*
X169545000Y-101802191D01*
X169545000Y-101186417D01*
X169368580Y-101219395D01*
X169177792Y-101293308D01*
X169003838Y-101401016D01*
X169003834Y-101401018D01*
X168852638Y-101538853D01*
X168852635Y-101538856D01*
X168840111Y-101555442D01*
X168796941Y-101583414D01*
X168745891Y-101577093D01*
X168710848Y-101539436D01*
X168704900Y-101510124D01*
X168704900Y-99902412D01*
X168722493Y-99854074D01*
X168726915Y-99849249D01*
X169851790Y-98724373D01*
X169851800Y-98724366D01*
X169914377Y-98661789D01*
X169914381Y-98661785D01*
X169954258Y-98592715D01*
X169974900Y-98515678D01*
X169974900Y-93101922D01*
X169954258Y-93024885D01*
X169954258Y-93024884D01*
X169925412Y-92974922D01*
X169914381Y-92955815D01*
X169914379Y-92955813D01*
X169914377Y-92955810D01*
X169855380Y-92896813D01*
X169855357Y-92896792D01*
X169488924Y-92530358D01*
X169467186Y-92483740D01*
X169466900Y-92477186D01*
X169466900Y-80493086D01*
X169466901Y-80493073D01*
X169466901Y-80407261D01*
X169446260Y-80330232D01*
X169446259Y-80330231D01*
X169446258Y-80330225D01*
X169423529Y-80290857D01*
X169406381Y-80261155D01*
X169406379Y-80261153D01*
X169406377Y-80261150D01*
X169347370Y-80202143D01*
X169347347Y-80202122D01*
X168483303Y-79338077D01*
X168461563Y-79291457D01*
X168461399Y-79287717D01*
X168461276Y-79286864D01*
X168461277Y-79286860D01*
X168442743Y-79157951D01*
X168388641Y-79039486D01*
X168388639Y-79039483D01*
X168303353Y-78941058D01*
X168193793Y-78870650D01*
X168068837Y-78833960D01*
X167938603Y-78833960D01*
X167813646Y-78870650D01*
X167704086Y-78941058D01*
X167629205Y-79027476D01*
X167584254Y-79052485D01*
X167572373Y-79053430D01*
X162957649Y-79053430D01*
X162909311Y-79035837D01*
X162892524Y-79015830D01*
X162810889Y-78874434D01*
X162679673Y-78728703D01*
X162679672Y-78728702D01*
X162679671Y-78728701D01*
X162573903Y-78651856D01*
X162521019Y-78613433D01*
X162341873Y-78533673D01*
X162341871Y-78533672D01*
X162341870Y-78533672D01*
X162150052Y-78492900D01*
X161953948Y-78492900D01*
X161762130Y-78533672D01*
X161762129Y-78533672D01*
X161762126Y-78533673D01*
X161582979Y-78613434D01*
X161424330Y-78728698D01*
X161293110Y-78874434D01*
X161195059Y-79044262D01*
X161195056Y-79044269D01*
X161134459Y-79230769D01*
X161134459Y-79230770D01*
X161113961Y-79425799D01*
X161113961Y-79425800D01*
X161134459Y-79620829D01*
X161134459Y-79620830D01*
X161195056Y-79807330D01*
X161195059Y-79807337D01*
X161293110Y-79977165D01*
X161366645Y-80058834D01*
X161424329Y-80122899D01*
X161582980Y-80238166D01*
X161762130Y-80317928D01*
X161953948Y-80358700D01*
X161953950Y-80358700D01*
X162150050Y-80358700D01*
X162150052Y-80358700D01*
X162341870Y-80317928D01*
X162521020Y-80238166D01*
X162679671Y-80122899D01*
X162810889Y-79977165D01*
X162860218Y-79891725D01*
X162908940Y-79807337D01*
X162908941Y-79807335D01*
X162933157Y-79732807D01*
X162940180Y-79711191D01*
X162971849Y-79670657D01*
X163011699Y-79659230D01*
X167723350Y-79659230D01*
X167764003Y-79671166D01*
X167813644Y-79703068D01*
X167938603Y-79739760D01*
X167997106Y-79739760D01*
X168045444Y-79757353D01*
X168050280Y-79761786D01*
X168839074Y-80550579D01*
X168860814Y-80597199D01*
X168861100Y-80603753D01*
X168861100Y-89434986D01*
X168843507Y-89483324D01*
X168798958Y-89509044D01*
X168748300Y-89500111D01*
X168732726Y-89488160D01*
X162242391Y-82997824D01*
X162220651Y-82951204D01*
X162233965Y-82901517D01*
X162276102Y-82872012D01*
X162279904Y-82871099D01*
X162341870Y-82857928D01*
X162521020Y-82778166D01*
X162679671Y-82662899D01*
X162810889Y-82517165D01*
X162860218Y-82431725D01*
X162908940Y-82347337D01*
X162908943Y-82347330D01*
X162968283Y-82164700D01*
X162969541Y-82160829D01*
X162971789Y-82139439D01*
X162994339Y-82093206D01*
X163041331Y-82072283D01*
X163046577Y-82072100D01*
X167676027Y-82072100D01*
X167716682Y-82084037D01*
X167785106Y-82128009D01*
X167910063Y-82164700D01*
X168040297Y-82164700D01*
X168165253Y-82128009D01*
X168165253Y-82128008D01*
X168165256Y-82128008D01*
X168274816Y-82057599D01*
X168360101Y-81959174D01*
X168414203Y-81840709D01*
X168432737Y-81711800D01*
X168414203Y-81582891D01*
X168412951Y-81580150D01*
X168360101Y-81464426D01*
X168360099Y-81464423D01*
X168308970Y-81405418D01*
X168274816Y-81366001D01*
X168274815Y-81366000D01*
X168274813Y-81365998D01*
X168165253Y-81295590D01*
X168040297Y-81258900D01*
X167910063Y-81258900D01*
X167785106Y-81295590D01*
X167675546Y-81365998D01*
X167611124Y-81440346D01*
X167566174Y-81465355D01*
X167554292Y-81466300D01*
X162884250Y-81466300D01*
X162835912Y-81448707D01*
X162819124Y-81428699D01*
X162810889Y-81414435D01*
X162745280Y-81341568D01*
X162679673Y-81268703D01*
X162679672Y-81268702D01*
X162679671Y-81268701D01*
X162521020Y-81153434D01*
X162521019Y-81153433D01*
X162341873Y-81073673D01*
X162341871Y-81073672D01*
X162341870Y-81073672D01*
X162150052Y-81032900D01*
X161953948Y-81032900D01*
X161762130Y-81073672D01*
X161762129Y-81073672D01*
X161762126Y-81073673D01*
X161582979Y-81153434D01*
X161424330Y-81268698D01*
X161293110Y-81414434D01*
X161195059Y-81584262D01*
X161195056Y-81584269D01*
X161134459Y-81770769D01*
X161134459Y-81770770D01*
X161113961Y-81965799D01*
X161113961Y-81965800D01*
X161134459Y-82160829D01*
X161134459Y-82160830D01*
X161195056Y-82347330D01*
X161195059Y-82347337D01*
X161293110Y-82517165D01*
X161424326Y-82662896D01*
X161424329Y-82662899D01*
X161582980Y-82778166D01*
X161606784Y-82788764D01*
X161607316Y-82789001D01*
X161644318Y-82824735D01*
X161649695Y-82875893D01*
X161620930Y-82918538D01*
X161576729Y-82932900D01*
X160938613Y-82932900D01*
X160890275Y-82915307D01*
X160885439Y-82910874D01*
X160389990Y-82415425D01*
X160368250Y-82368805D01*
X160371645Y-82339013D01*
X160375909Y-82325890D01*
X160429541Y-82160829D01*
X160450039Y-81965800D01*
X160449342Y-81959173D01*
X160443812Y-81906556D01*
X160429541Y-81770771D01*
X160403132Y-81689494D01*
X160368943Y-81584269D01*
X160368940Y-81584262D01*
X160270889Y-81414434D01*
X160139673Y-81268703D01*
X160139672Y-81268702D01*
X160139671Y-81268701D01*
X159981020Y-81153434D01*
X159981019Y-81153433D01*
X159801873Y-81073673D01*
X159801871Y-81073672D01*
X159801870Y-81073672D01*
X159610052Y-81032900D01*
X159413948Y-81032900D01*
X159222130Y-81073672D01*
X159222129Y-81073672D01*
X159222126Y-81073673D01*
X159042979Y-81153434D01*
X158884330Y-81268698D01*
X158753110Y-81414434D01*
X158655059Y-81584262D01*
X158655056Y-81584269D01*
X158594459Y-81770769D01*
X158594459Y-81770770D01*
X158573961Y-81965799D01*
X158573961Y-81965800D01*
X158594459Y-82160829D01*
X158594459Y-82160830D01*
X158655056Y-82347330D01*
X158655059Y-82347337D01*
X158753110Y-82517165D01*
X158884326Y-82662896D01*
X158884329Y-82662899D01*
X159042980Y-82778166D01*
X159222130Y-82857928D01*
X159413948Y-82898700D01*
X159413950Y-82898700D01*
X159610050Y-82898700D01*
X159610052Y-82898700D01*
X159801870Y-82857928D01*
X159801874Y-82857926D01*
X159801875Y-82857926D01*
X159874977Y-82825379D01*
X159926292Y-82821790D01*
X159958738Y-82840903D01*
X160536982Y-83419147D01*
X160537003Y-83419170D01*
X160596010Y-83478177D01*
X160596013Y-83478179D01*
X160596015Y-83478181D01*
X160626469Y-83495763D01*
X160665082Y-83518057D01*
X160665084Y-83518057D01*
X160665085Y-83518058D01*
X160742122Y-83538700D01*
X161895386Y-83538700D01*
X161943724Y-83556293D01*
X161948560Y-83560726D01*
X163640580Y-85252746D01*
X165252121Y-86864286D01*
X165273861Y-86910906D01*
X165260547Y-86960593D01*
X165218410Y-86990098D01*
X165198947Y-86992660D01*
X158990477Y-86992660D01*
X158942139Y-86975067D01*
X158933646Y-86966707D01*
X158922634Y-86953999D01*
X158813073Y-86883590D01*
X158688117Y-86846900D01*
X158557883Y-86846900D01*
X158432926Y-86883590D01*
X158323366Y-86953998D01*
X158238080Y-87052423D01*
X158238078Y-87052426D01*
X158183977Y-87170888D01*
X158165443Y-87299800D01*
X158183977Y-87428711D01*
X158230872Y-87531393D01*
X158234949Y-87582671D01*
X158205111Y-87624573D01*
X158155320Y-87637493D01*
X158141282Y-87634787D01*
X158053117Y-87608900D01*
X157922883Y-87608900D01*
X157797926Y-87645590D01*
X157688366Y-87715998D01*
X157603080Y-87814423D01*
X157603078Y-87814426D01*
X157548977Y-87932888D01*
X157530443Y-88061800D01*
X157548977Y-88190711D01*
X157603078Y-88309173D01*
X157603080Y-88309176D01*
X157688366Y-88407601D01*
X157797926Y-88478009D01*
X157922883Y-88514700D01*
X158053117Y-88514700D01*
X158178073Y-88478009D01*
X158178073Y-88478008D01*
X158178076Y-88478008D01*
X158287636Y-88407599D01*
X158302318Y-88390653D01*
X158347267Y-88365645D01*
X158359150Y-88364700D01*
X161133386Y-88364700D01*
X161181724Y-88382293D01*
X161186560Y-88386726D01*
X167188074Y-94388240D01*
X167209814Y-94434860D01*
X167210100Y-94441414D01*
X167210100Y-97430186D01*
X167192507Y-97478524D01*
X167188074Y-97483360D01*
X165504560Y-99166874D01*
X165457940Y-99188614D01*
X165451386Y-99188900D01*
X165123814Y-99188900D01*
X165075476Y-99171307D01*
X165049756Y-99126758D01*
X165058689Y-99076100D01*
X165070640Y-99060526D01*
X166323439Y-97807726D01*
X166370059Y-97785986D01*
X166376613Y-97785700D01*
X166435117Y-97785700D01*
X166560073Y-97749009D01*
X166560073Y-97749008D01*
X166560076Y-97749008D01*
X166669636Y-97678599D01*
X166754921Y-97580174D01*
X166809023Y-97461709D01*
X166827557Y-97332800D01*
X166809023Y-97203891D01*
X166803737Y-97192317D01*
X166754921Y-97085426D01*
X166754919Y-97085423D01*
X166688871Y-97009200D01*
X166669636Y-96987001D01*
X166669635Y-96987000D01*
X166669633Y-96986998D01*
X166560074Y-96916591D01*
X166469483Y-96889991D01*
X166428061Y-96859492D01*
X166415933Y-96809502D01*
X166433836Y-96768594D01*
X166500921Y-96691174D01*
X166555023Y-96572709D01*
X166573557Y-96443800D01*
X166555023Y-96314891D01*
X166546460Y-96296142D01*
X166500921Y-96196426D01*
X166500919Y-96196423D01*
X166432822Y-96117835D01*
X166415636Y-96098001D01*
X166415635Y-96098000D01*
X166415633Y-96097998D01*
X166306073Y-96027590D01*
X166181117Y-95990900D01*
X166050883Y-95990900D01*
X165925926Y-96027590D01*
X165816366Y-96097998D01*
X165731080Y-96196423D01*
X165731078Y-96196426D01*
X165676977Y-96314888D01*
X165669357Y-96367889D01*
X165659396Y-96437176D01*
X165657678Y-96449123D01*
X165655886Y-96448865D01*
X165640850Y-96490180D01*
X165636417Y-96495016D01*
X163980560Y-98150874D01*
X163933940Y-98172614D01*
X163927386Y-98172900D01*
X158900814Y-98172900D01*
X158852476Y-98155307D01*
X158826756Y-98110758D01*
X158835689Y-98060100D01*
X158847640Y-98044526D01*
X162386439Y-94505726D01*
X162433059Y-94483986D01*
X162439613Y-94483700D01*
X162498117Y-94483700D01*
X162623073Y-94447009D01*
X162623073Y-94447008D01*
X162623076Y-94447008D01*
X162732636Y-94376599D01*
X162817921Y-94278174D01*
X162872023Y-94159709D01*
X162890557Y-94030800D01*
X162872023Y-93901891D01*
X162845957Y-93844816D01*
X162817921Y-93783426D01*
X162817919Y-93783423D01*
X162750456Y-93705567D01*
X162732636Y-93685001D01*
X162732635Y-93685000D01*
X162732633Y-93684998D01*
X162623073Y-93614590D01*
X162498117Y-93577900D01*
X162367883Y-93577900D01*
X162242926Y-93614590D01*
X162133366Y-93684998D01*
X162048080Y-93783423D01*
X162048078Y-93783426D01*
X161993977Y-93901888D01*
X161986598Y-93953211D01*
X161981177Y-93990922D01*
X161974678Y-94036123D01*
X161972887Y-94035865D01*
X161957850Y-94077181D01*
X161953417Y-94082017D01*
X158392560Y-97642874D01*
X158345940Y-97664614D01*
X158339386Y-97664900D01*
X149762613Y-97664900D01*
X149714275Y-97647307D01*
X149709439Y-97642874D01*
X148256367Y-96189800D01*
X149148443Y-96189800D01*
X149166977Y-96318711D01*
X149221078Y-96437173D01*
X149221080Y-96437176D01*
X149269192Y-96492700D01*
X149291997Y-96519019D01*
X149306366Y-96535601D01*
X149415926Y-96606009D01*
X149540883Y-96642700D01*
X149671117Y-96642700D01*
X149796073Y-96606009D01*
X149796073Y-96606008D01*
X149796076Y-96606008D01*
X149905636Y-96535599D01*
X149990921Y-96437174D01*
X150045023Y-96318709D01*
X150063557Y-96189800D01*
X150063556Y-96189798D01*
X150064322Y-96184476D01*
X150066112Y-96184733D01*
X150081150Y-96143418D01*
X150085571Y-96138593D01*
X150737381Y-95486785D01*
X150777258Y-95417715D01*
X150778591Y-95412743D01*
X150797901Y-95340678D01*
X150797901Y-95256320D01*
X150797900Y-95256302D01*
X150797900Y-92495880D01*
X150815493Y-92447542D01*
X150816268Y-92446634D01*
X150879919Y-92373176D01*
X150879921Y-92373174D01*
X150934023Y-92254709D01*
X150952557Y-92125800D01*
X150934023Y-91996891D01*
X150879921Y-91878426D01*
X150879919Y-91878423D01*
X150794633Y-91779998D01*
X150685073Y-91709590D01*
X150560117Y-91672900D01*
X150429883Y-91672900D01*
X150304926Y-91709590D01*
X150195366Y-91779998D01*
X150110080Y-91878423D01*
X150110078Y-91878426D01*
X150055977Y-91996888D01*
X150037443Y-92125800D01*
X150055977Y-92254711D01*
X150110078Y-92373173D01*
X150110080Y-92373176D01*
X150173732Y-92446634D01*
X150192091Y-92494687D01*
X150192100Y-92495880D01*
X150192100Y-95144186D01*
X150174507Y-95192524D01*
X150170074Y-95197360D01*
X149652560Y-95714874D01*
X149605940Y-95736614D01*
X149599386Y-95736900D01*
X149540883Y-95736900D01*
X149415926Y-95773590D01*
X149306366Y-95843998D01*
X149221080Y-95942423D01*
X149221078Y-95942426D01*
X149166977Y-96060888D01*
X149148443Y-96189800D01*
X148256367Y-96189800D01*
X148013989Y-95947422D01*
X148013983Y-95947418D01*
X148005331Y-95942423D01*
X148003299Y-95941249D01*
X147944913Y-95907540D01*
X147867879Y-95886899D01*
X147867878Y-95886899D01*
X147788122Y-95886899D01*
X147783519Y-95886899D01*
X147783503Y-95886900D01*
X146841614Y-95886900D01*
X146793276Y-95869307D01*
X146788440Y-95864874D01*
X146120926Y-95197360D01*
X146099186Y-95150740D01*
X146098900Y-95144186D01*
X146098900Y-94244924D01*
X146098900Y-94244922D01*
X146078258Y-94167885D01*
X146078257Y-94167884D01*
X146078257Y-94167882D01*
X146042484Y-94105922D01*
X146038381Y-94098815D01*
X145981985Y-94042419D01*
X145417868Y-93478302D01*
X144838989Y-92899422D01*
X144838983Y-92899418D01*
X144838981Y-92899417D01*
X144821517Y-92889334D01*
X144769913Y-92859540D01*
X144692879Y-92838899D01*
X144692878Y-92838899D01*
X144613122Y-92838899D01*
X144608519Y-92838899D01*
X144608503Y-92838900D01*
X138855497Y-92838900D01*
X138855481Y-92838899D01*
X138850878Y-92838899D01*
X138771122Y-92838899D01*
X138771121Y-92838899D01*
X138694086Y-92859540D01*
X138625016Y-92899418D01*
X138625010Y-92899422D01*
X137679622Y-93844810D01*
X137679618Y-93844816D01*
X137639740Y-93913886D01*
X137619099Y-93990921D01*
X137619099Y-94053161D01*
X137601506Y-94101499D01*
X137556957Y-94127219D01*
X137506299Y-94118286D01*
X137485769Y-94100868D01*
X137416358Y-94016291D01*
X137364589Y-93953211D01*
X137364587Y-93953209D01*
X137364586Y-93953208D01*
X137211885Y-93827889D01*
X137211881Y-93827886D01*
X137211879Y-93827885D01*
X137211878Y-93827884D01*
X137077657Y-93756142D01*
X137037647Y-93734756D01*
X137037643Y-93734755D01*
X136848600Y-93677410D01*
X136652000Y-93658047D01*
X136455400Y-93677410D01*
X136455398Y-93677410D01*
X136266356Y-93734755D01*
X136266352Y-93734756D01*
X136092118Y-93827886D01*
X136092114Y-93827889D01*
X135939410Y-93953210D01*
X135814089Y-94105914D01*
X135814086Y-94105918D01*
X135720956Y-94280152D01*
X135720955Y-94280156D01*
X135663610Y-94469198D01*
X135663610Y-94469200D01*
X135644247Y-94665800D01*
X135663610Y-94862399D01*
X135663610Y-94862401D01*
X135720955Y-95051443D01*
X135720956Y-95051447D01*
X135767521Y-95138564D01*
X135807474Y-95213312D01*
X135814086Y-95225681D01*
X135814089Y-95225685D01*
X135939410Y-95378389D01*
X136092114Y-95503710D01*
X136092118Y-95503713D01*
X136092122Y-95503716D01*
X136210160Y-95566808D01*
X136266352Y-95596843D01*
X136266356Y-95596844D01*
X136299586Y-95606924D01*
X136455397Y-95654189D01*
X136652000Y-95673553D01*
X136848603Y-95654189D01*
X136979950Y-95614345D01*
X137031311Y-95617149D01*
X137068855Y-95652313D01*
X137075013Y-95703383D01*
X137054951Y-95739481D01*
X136650708Y-96143724D01*
X136636690Y-96168005D01*
X136597284Y-96201070D01*
X136578936Y-96205243D01*
X136455400Y-96217410D01*
X136455398Y-96217410D01*
X136266355Y-96274755D01*
X136239270Y-96289232D01*
X136188346Y-96296500D01*
X136150650Y-96276085D01*
X135564035Y-95689469D01*
X135547355Y-95679839D01*
X135494963Y-95649590D01*
X135417929Y-95628949D01*
X135417928Y-95628949D01*
X135338172Y-95628949D01*
X135333569Y-95628949D01*
X135333553Y-95628950D01*
X134888312Y-95628950D01*
X134839974Y-95611357D01*
X134814254Y-95566808D01*
X134823187Y-95516150D01*
X134837650Y-95498177D01*
X134931361Y-95412746D01*
X134931364Y-95412743D01*
X135054663Y-95249467D01*
X135145859Y-95066320D01*
X135145861Y-95066317D01*
X135201850Y-94869535D01*
X135201851Y-94869529D01*
X135208962Y-94792800D01*
X134595608Y-94792800D01*
X134612000Y-94731626D01*
X134612000Y-94599974D01*
X134595608Y-94538800D01*
X135208962Y-94538800D01*
X135201851Y-94462070D01*
X135201850Y-94462064D01*
X135145861Y-94265282D01*
X135145859Y-94265279D01*
X135054663Y-94082132D01*
X134931364Y-93918856D01*
X134931361Y-93918853D01*
X134780165Y-93781018D01*
X134780161Y-93781016D01*
X134606207Y-93673308D01*
X134415418Y-93599395D01*
X134415419Y-93599395D01*
X134239000Y-93566417D01*
X134239000Y-94182191D01*
X134177826Y-94165800D01*
X134046174Y-94165800D01*
X133985000Y-94182191D01*
X133985000Y-93566417D01*
X133808580Y-93599395D01*
X133617792Y-93673308D01*
X133443838Y-93781016D01*
X133443834Y-93781018D01*
X133292638Y-93918853D01*
X133292635Y-93918856D01*
X133169336Y-94082132D01*
X133078140Y-94265279D01*
X133078138Y-94265282D01*
X133022149Y-94462064D01*
X133022148Y-94462070D01*
X133015038Y-94538800D01*
X133628392Y-94538800D01*
X133612000Y-94599974D01*
X133612000Y-94731626D01*
X133628392Y-94792800D01*
X133015038Y-94792800D01*
X133022148Y-94869529D01*
X133022149Y-94869535D01*
X133078138Y-95066317D01*
X133078140Y-95066320D01*
X133169336Y-95249467D01*
X133292635Y-95412743D01*
X133292638Y-95412746D01*
X133386350Y-95498177D01*
X133410219Y-95543744D01*
X133399214Y-95593992D01*
X133358485Y-95625411D01*
X133335688Y-95628950D01*
X132647020Y-95628950D01*
X132598682Y-95611357D01*
X132572962Y-95566808D01*
X132573265Y-95539080D01*
X132574151Y-95534621D01*
X132574900Y-95530857D01*
X132574899Y-93800744D01*
X132566028Y-93756142D01*
X132551738Y-93734756D01*
X132532235Y-93705567D01*
X132532231Y-93705564D01*
X132481658Y-93671772D01*
X132481656Y-93671771D01*
X132437057Y-93662900D01*
X130706944Y-93662900D01*
X130706942Y-93662901D01*
X130662340Y-93671772D01*
X130611767Y-93705564D01*
X130577972Y-93756142D01*
X130577971Y-93756143D01*
X130569100Y-93800742D01*
X130569100Y-95530853D01*
X130569604Y-95533387D01*
X130570736Y-95539079D01*
X130562913Y-95589919D01*
X130524239Y-95623836D01*
X130496982Y-95628950D01*
X130327664Y-95628950D01*
X130279326Y-95611357D01*
X130274490Y-95606924D01*
X129229926Y-94562360D01*
X129208186Y-94515740D01*
X129207900Y-94509186D01*
X129207900Y-91917746D01*
X129207901Y-91917733D01*
X129207901Y-91831921D01*
X129187259Y-91754886D01*
X129161107Y-91709590D01*
X129147381Y-91685815D01*
X129147379Y-91685813D01*
X129147377Y-91685810D01*
X128074989Y-90613422D01*
X128074983Y-90613418D01*
X128073034Y-90612293D01*
X128040576Y-90593553D01*
X128005913Y-90573540D01*
X127928879Y-90552899D01*
X127928878Y-90552899D01*
X127849122Y-90552899D01*
X127844519Y-90552899D01*
X127844503Y-90552900D01*
X127837200Y-90552900D01*
X127788862Y-90535307D01*
X127763142Y-90490758D01*
X127762000Y-90477700D01*
X127762000Y-89458799D01*
X128005505Y-89458799D01*
X128005505Y-89458800D01*
X128600155Y-89458800D01*
X128582000Y-89526556D01*
X128582000Y-89645044D01*
X128600155Y-89712800D01*
X128005505Y-89712800D01*
X128012960Y-89788495D01*
X128012960Y-89788497D01*
X128072083Y-89983402D01*
X128072088Y-89983414D01*
X128168098Y-90163034D01*
X128168106Y-90163046D01*
X128297313Y-90320486D01*
X128454753Y-90449693D01*
X128454765Y-90449701D01*
X128634385Y-90545711D01*
X128634397Y-90545716D01*
X128829303Y-90604839D01*
X128905000Y-90612294D01*
X128905000Y-90017644D01*
X128972756Y-90035800D01*
X129091244Y-90035800D01*
X129159000Y-90017644D01*
X129159000Y-90612293D01*
X129234696Y-90604839D01*
X129429602Y-90545716D01*
X129429614Y-90545711D01*
X129609234Y-90449701D01*
X129609246Y-90449693D01*
X129766686Y-90320486D01*
X129895893Y-90163046D01*
X129895901Y-90163034D01*
X129991911Y-89983414D01*
X129991916Y-89983402D01*
X130051039Y-89788497D01*
X130051039Y-89788495D01*
X130058494Y-89712800D01*
X129463845Y-89712800D01*
X129482000Y-89645044D01*
X129482000Y-89526556D01*
X129463845Y-89458800D01*
X130058495Y-89458800D01*
X130475038Y-89458800D01*
X131088392Y-89458800D01*
X131072000Y-89519974D01*
X131072000Y-89651626D01*
X131088392Y-89712800D01*
X130475038Y-89712800D01*
X130482148Y-89789529D01*
X130482149Y-89789535D01*
X130538138Y-89986317D01*
X130538140Y-89986320D01*
X130629336Y-90169467D01*
X130752635Y-90332743D01*
X130752638Y-90332746D01*
X130903834Y-90470581D01*
X130903838Y-90470583D01*
X131077792Y-90578291D01*
X131268583Y-90652205D01*
X131444999Y-90685181D01*
X131445000Y-90685181D01*
X131445000Y-90069408D01*
X131506174Y-90085800D01*
X131637826Y-90085800D01*
X131699000Y-90069408D01*
X131699000Y-90685181D01*
X131875416Y-90652205D01*
X132066207Y-90578291D01*
X132240161Y-90470583D01*
X132240165Y-90470581D01*
X132391361Y-90332746D01*
X132391364Y-90332743D01*
X132514663Y-90169467D01*
X132605859Y-89986320D01*
X132605861Y-89986317D01*
X132661850Y-89789535D01*
X132661851Y-89789529D01*
X132668962Y-89712800D01*
X132055608Y-89712800D01*
X132072000Y-89651626D01*
X132072000Y-89519974D01*
X132055608Y-89458800D01*
X132668962Y-89458800D01*
X132661851Y-89382070D01*
X132661850Y-89382064D01*
X132605861Y-89185282D01*
X132605859Y-89185279D01*
X132514663Y-89002132D01*
X132391364Y-88838856D01*
X132391361Y-88838853D01*
X132240165Y-88701018D01*
X132240161Y-88701016D01*
X132066207Y-88593308D01*
X131875418Y-88519395D01*
X131875419Y-88519395D01*
X131699000Y-88486417D01*
X131699000Y-89102191D01*
X131637826Y-89085800D01*
X131506174Y-89085800D01*
X131445000Y-89102191D01*
X131445000Y-88486417D01*
X131268580Y-88519395D01*
X131077792Y-88593308D01*
X130903838Y-88701016D01*
X130903834Y-88701018D01*
X130752638Y-88838853D01*
X130752635Y-88838856D01*
X130629336Y-89002132D01*
X130538140Y-89185279D01*
X130538138Y-89185282D01*
X130482149Y-89382064D01*
X130482148Y-89382070D01*
X130475038Y-89458800D01*
X130058495Y-89458800D01*
X130058494Y-89458799D01*
X130051039Y-89383104D01*
X130051039Y-89383102D01*
X129991916Y-89188197D01*
X129991911Y-89188185D01*
X129895901Y-89008565D01*
X129895893Y-89008553D01*
X129766686Y-88851113D01*
X129609246Y-88721906D01*
X129609234Y-88721898D01*
X129429614Y-88625888D01*
X129429602Y-88625883D01*
X129234696Y-88566760D01*
X129159000Y-88559305D01*
X129159000Y-89153955D01*
X129091244Y-89135800D01*
X128972756Y-89135800D01*
X128905000Y-89153955D01*
X128905000Y-88559305D01*
X128904999Y-88559305D01*
X128829304Y-88566760D01*
X128829302Y-88566760D01*
X128634397Y-88625883D01*
X128634385Y-88625888D01*
X128454765Y-88721898D01*
X128454753Y-88721906D01*
X128297313Y-88851113D01*
X128168106Y-89008553D01*
X128168098Y-89008565D01*
X128072088Y-89188185D01*
X128072083Y-89188197D01*
X128012960Y-89383102D01*
X128012960Y-89383104D01*
X128005505Y-89458799D01*
X127762000Y-89458799D01*
X127762000Y-86918799D01*
X128005505Y-86918799D01*
X128005505Y-86918800D01*
X128600155Y-86918800D01*
X128582000Y-86986556D01*
X128582000Y-87105044D01*
X128600155Y-87172800D01*
X128005505Y-87172800D01*
X128012960Y-87248495D01*
X128012960Y-87248497D01*
X128072083Y-87443402D01*
X128072088Y-87443414D01*
X128168098Y-87623034D01*
X128168106Y-87623046D01*
X128297313Y-87780486D01*
X128454753Y-87909693D01*
X128454765Y-87909701D01*
X128634385Y-88005711D01*
X128634397Y-88005716D01*
X128829303Y-88064839D01*
X128905000Y-88072294D01*
X128905000Y-87477644D01*
X128972756Y-87495800D01*
X129091244Y-87495800D01*
X129159000Y-87477644D01*
X129159000Y-88072293D01*
X129234696Y-88064839D01*
X129429602Y-88005716D01*
X129429614Y-88005711D01*
X129609234Y-87909701D01*
X129609246Y-87909693D01*
X129766686Y-87780486D01*
X129895893Y-87623046D01*
X129895901Y-87623034D01*
X129991911Y-87443414D01*
X129991916Y-87443402D01*
X130051039Y-87248497D01*
X130051039Y-87248495D01*
X130058494Y-87172800D01*
X129463845Y-87172800D01*
X129482000Y-87105044D01*
X129482000Y-86986556D01*
X129463845Y-86918800D01*
X130058495Y-86918800D01*
X130058494Y-86918799D01*
X130051039Y-86843104D01*
X130051039Y-86843102D01*
X129991916Y-86648197D01*
X129991911Y-86648185D01*
X129895901Y-86468565D01*
X129895893Y-86468553D01*
X129766686Y-86311113D01*
X129609246Y-86181906D01*
X129609234Y-86181898D01*
X129429614Y-86085888D01*
X129429602Y-86085883D01*
X129234696Y-86026760D01*
X129159000Y-86019305D01*
X129159000Y-86613955D01*
X129091244Y-86595800D01*
X128972756Y-86595800D01*
X128905000Y-86613955D01*
X128905000Y-86019305D01*
X128904999Y-86019305D01*
X128829304Y-86026760D01*
X128829302Y-86026760D01*
X128634397Y-86085883D01*
X128634385Y-86085888D01*
X128454765Y-86181898D01*
X128454753Y-86181906D01*
X128297313Y-86311113D01*
X128168106Y-86468553D01*
X128168098Y-86468565D01*
X128072088Y-86648185D01*
X128072083Y-86648197D01*
X128012960Y-86843102D01*
X128012960Y-86843104D01*
X128005505Y-86918799D01*
X127762000Y-86918799D01*
X127762000Y-84378799D01*
X128005505Y-84378799D01*
X128005505Y-84378800D01*
X128600155Y-84378800D01*
X128582000Y-84446556D01*
X128582000Y-84565044D01*
X128600155Y-84632800D01*
X128005505Y-84632800D01*
X128012960Y-84708495D01*
X128012960Y-84708497D01*
X128072083Y-84903402D01*
X128072088Y-84903414D01*
X128168098Y-85083034D01*
X128168106Y-85083046D01*
X128297313Y-85240486D01*
X128454753Y-85369693D01*
X128454765Y-85369701D01*
X128634385Y-85465711D01*
X128634397Y-85465716D01*
X128829303Y-85524839D01*
X128905000Y-85532294D01*
X128905000Y-84937644D01*
X128972756Y-84955800D01*
X129091244Y-84955800D01*
X129159000Y-84937644D01*
X129159000Y-85532293D01*
X129234696Y-85524839D01*
X129429602Y-85465716D01*
X129429614Y-85465711D01*
X129609234Y-85369701D01*
X129609246Y-85369693D01*
X129766686Y-85240486D01*
X129895893Y-85083046D01*
X129895901Y-85083034D01*
X129991911Y-84903414D01*
X129991916Y-84903402D01*
X130051039Y-84708497D01*
X130051039Y-84708495D01*
X130058494Y-84632800D01*
X129463845Y-84632800D01*
X129482000Y-84565044D01*
X129482000Y-84446556D01*
X129463845Y-84378800D01*
X130058495Y-84378800D01*
X130449638Y-84378800D01*
X131062992Y-84378800D01*
X131046600Y-84439974D01*
X131046600Y-84571626D01*
X131062992Y-84632800D01*
X130449638Y-84632800D01*
X130456748Y-84709529D01*
X130456749Y-84709535D01*
X130512738Y-84906317D01*
X130512740Y-84906320D01*
X130603936Y-85089467D01*
X130727235Y-85252743D01*
X130727238Y-85252746D01*
X130878434Y-85390581D01*
X130878438Y-85390583D01*
X131052392Y-85498291D01*
X131243183Y-85572205D01*
X131419599Y-85605181D01*
X131419600Y-85605181D01*
X131419600Y-84989408D01*
X131480774Y-85005800D01*
X131612426Y-85005800D01*
X131673600Y-84989408D01*
X131673600Y-85605181D01*
X131850016Y-85572205D01*
X132040807Y-85498291D01*
X132214761Y-85390583D01*
X132214765Y-85390581D01*
X132365961Y-85252746D01*
X132365964Y-85252743D01*
X132489263Y-85089467D01*
X132580459Y-84906320D01*
X132580461Y-84906317D01*
X132636450Y-84709535D01*
X132636451Y-84709529D01*
X132643562Y-84632800D01*
X132030208Y-84632800D01*
X132046600Y-84571626D01*
X132046600Y-84439974D01*
X132030208Y-84378800D01*
X132643562Y-84378800D01*
X132636451Y-84302070D01*
X132636450Y-84302064D01*
X132580461Y-84105282D01*
X132580459Y-84105279D01*
X132489263Y-83922132D01*
X132365964Y-83758856D01*
X132365961Y-83758853D01*
X132214765Y-83621018D01*
X132214761Y-83621016D01*
X132040807Y-83513308D01*
X131850018Y-83439395D01*
X131850019Y-83439395D01*
X131673600Y-83406417D01*
X131673600Y-84022191D01*
X131612426Y-84005800D01*
X131480774Y-84005800D01*
X131419600Y-84022191D01*
X131419600Y-83406417D01*
X131243180Y-83439395D01*
X131052392Y-83513308D01*
X130878438Y-83621016D01*
X130878434Y-83621018D01*
X130727238Y-83758853D01*
X130727235Y-83758856D01*
X130603936Y-83922132D01*
X130512740Y-84105279D01*
X130512738Y-84105282D01*
X130456749Y-84302064D01*
X130456748Y-84302070D01*
X130449638Y-84378800D01*
X130058495Y-84378800D01*
X130058494Y-84378799D01*
X130051039Y-84303104D01*
X130051039Y-84303102D01*
X129991916Y-84108197D01*
X129991911Y-84108185D01*
X129895901Y-83928565D01*
X129895893Y-83928553D01*
X129766686Y-83771113D01*
X129609246Y-83641906D01*
X129609234Y-83641898D01*
X129429614Y-83545888D01*
X129429602Y-83545883D01*
X129234696Y-83486760D01*
X129159000Y-83479305D01*
X129159000Y-84073955D01*
X129091244Y-84055800D01*
X128972756Y-84055800D01*
X128905000Y-84073955D01*
X128905000Y-83479305D01*
X128904999Y-83479305D01*
X128829304Y-83486760D01*
X128829302Y-83486760D01*
X128634397Y-83545883D01*
X128634385Y-83545888D01*
X128454765Y-83641898D01*
X128454753Y-83641906D01*
X128297313Y-83771113D01*
X128168106Y-83928553D01*
X128168098Y-83928565D01*
X128072088Y-84108185D01*
X128072083Y-84108197D01*
X128012960Y-84303102D01*
X128012960Y-84303104D01*
X128005505Y-84378799D01*
X127762000Y-84378799D01*
X127762000Y-81838799D01*
X128005505Y-81838799D01*
X128005505Y-81838800D01*
X128600155Y-81838800D01*
X128582000Y-81906556D01*
X128582000Y-82025044D01*
X128600155Y-82092800D01*
X128005505Y-82092800D01*
X128012960Y-82168495D01*
X128012960Y-82168497D01*
X128072083Y-82363402D01*
X128072088Y-82363414D01*
X128168098Y-82543034D01*
X128168106Y-82543046D01*
X128297313Y-82700486D01*
X128454753Y-82829693D01*
X128454765Y-82829701D01*
X128634385Y-82925711D01*
X128634397Y-82925716D01*
X128829303Y-82984839D01*
X128905000Y-82992294D01*
X128905000Y-82397644D01*
X128972756Y-82415800D01*
X129091244Y-82415800D01*
X129159000Y-82397644D01*
X129159000Y-82992293D01*
X129234696Y-82984839D01*
X129429602Y-82925716D01*
X129429614Y-82925711D01*
X129609234Y-82829701D01*
X129609246Y-82829693D01*
X129766686Y-82700486D01*
X129895893Y-82543046D01*
X129895901Y-82543034D01*
X129991911Y-82363414D01*
X129991916Y-82363402D01*
X130051039Y-82168497D01*
X130051039Y-82168495D01*
X130058494Y-82092800D01*
X129463845Y-82092800D01*
X129482000Y-82025044D01*
X129482000Y-81906556D01*
X129463845Y-81838800D01*
X130058495Y-81838800D01*
X130475038Y-81838800D01*
X131088392Y-81838800D01*
X131072000Y-81899974D01*
X131072000Y-82031626D01*
X131088392Y-82092800D01*
X130475038Y-82092800D01*
X130482148Y-82169529D01*
X130482149Y-82169535D01*
X130538138Y-82366317D01*
X130538140Y-82366320D01*
X130629336Y-82549467D01*
X130752635Y-82712743D01*
X130752638Y-82712746D01*
X130903834Y-82850581D01*
X130903838Y-82850583D01*
X131077792Y-82958291D01*
X131268583Y-83032205D01*
X131444999Y-83065181D01*
X131445000Y-83065181D01*
X131445000Y-82449408D01*
X131506174Y-82465800D01*
X131637826Y-82465800D01*
X131699000Y-82449408D01*
X131699000Y-83065181D01*
X131875416Y-83032205D01*
X132066207Y-82958291D01*
X132240161Y-82850583D01*
X132240165Y-82850581D01*
X132391361Y-82712746D01*
X132391364Y-82712743D01*
X132514663Y-82549467D01*
X132605859Y-82366320D01*
X132605861Y-82366317D01*
X132661850Y-82169535D01*
X132661851Y-82169529D01*
X132668962Y-82092800D01*
X132055608Y-82092800D01*
X132072000Y-82031626D01*
X132072000Y-81899974D01*
X132055608Y-81838800D01*
X132668962Y-81838800D01*
X132661851Y-81762070D01*
X132661850Y-81762064D01*
X132605861Y-81565282D01*
X132605859Y-81565279D01*
X132514663Y-81382132D01*
X132391364Y-81218856D01*
X132391361Y-81218853D01*
X132240165Y-81081018D01*
X132240161Y-81081016D01*
X132066207Y-80973308D01*
X131875418Y-80899395D01*
X131875419Y-80899395D01*
X131699000Y-80866417D01*
X131699000Y-81482191D01*
X131637826Y-81465800D01*
X131506174Y-81465800D01*
X131445000Y-81482191D01*
X131445000Y-80866417D01*
X131268580Y-80899395D01*
X131077792Y-80973308D01*
X130903838Y-81081016D01*
X130903834Y-81081018D01*
X130752638Y-81218853D01*
X130752635Y-81218856D01*
X130629336Y-81382132D01*
X130538140Y-81565279D01*
X130538138Y-81565282D01*
X130482149Y-81762064D01*
X130482148Y-81762070D01*
X130475038Y-81838800D01*
X130058495Y-81838800D01*
X130058494Y-81838799D01*
X130051039Y-81763104D01*
X130051039Y-81763102D01*
X129991916Y-81568197D01*
X129991911Y-81568185D01*
X129895901Y-81388565D01*
X129895893Y-81388553D01*
X129766686Y-81231113D01*
X129609246Y-81101906D01*
X129609234Y-81101898D01*
X129429614Y-81005888D01*
X129429602Y-81005883D01*
X129234696Y-80946760D01*
X129159000Y-80939305D01*
X129159000Y-81533955D01*
X129091244Y-81515800D01*
X128972756Y-81515800D01*
X128905000Y-81533955D01*
X128905000Y-80939305D01*
X128904999Y-80939305D01*
X128829304Y-80946760D01*
X128829302Y-80946760D01*
X128634397Y-81005883D01*
X128634385Y-81005888D01*
X128454765Y-81101898D01*
X128454753Y-81101906D01*
X128297313Y-81231113D01*
X128168106Y-81388553D01*
X128168098Y-81388565D01*
X128072088Y-81568185D01*
X128072083Y-81568197D01*
X128012960Y-81763102D01*
X128012960Y-81763104D01*
X128005505Y-81838799D01*
X127762000Y-81838799D01*
X127762000Y-79298799D01*
X128005505Y-79298799D01*
X128005505Y-79298800D01*
X128600155Y-79298800D01*
X128582000Y-79366556D01*
X128582000Y-79485044D01*
X128600155Y-79552800D01*
X128005505Y-79552800D01*
X128012960Y-79628495D01*
X128012960Y-79628497D01*
X128072083Y-79823402D01*
X128072088Y-79823414D01*
X128168098Y-80003034D01*
X128168106Y-80003046D01*
X128297313Y-80160486D01*
X128454753Y-80289693D01*
X128454765Y-80289701D01*
X128634385Y-80385711D01*
X128634397Y-80385716D01*
X128829303Y-80444839D01*
X128905000Y-80452294D01*
X128905000Y-79857644D01*
X128972756Y-79875800D01*
X129091244Y-79875800D01*
X129159000Y-79857644D01*
X129159000Y-80452293D01*
X129234696Y-80444839D01*
X129429602Y-80385716D01*
X129429614Y-80385711D01*
X129609234Y-80289701D01*
X129609246Y-80289693D01*
X129766686Y-80160486D01*
X129895893Y-80003046D01*
X129895901Y-80003034D01*
X129991911Y-79823414D01*
X129991916Y-79823402D01*
X130051039Y-79628497D01*
X130051039Y-79628495D01*
X130058494Y-79552800D01*
X129463845Y-79552800D01*
X129482000Y-79485044D01*
X129482000Y-79366556D01*
X129463845Y-79298800D01*
X130058495Y-79298800D01*
X130449638Y-79298800D01*
X131062992Y-79298800D01*
X131046600Y-79359974D01*
X131046600Y-79491626D01*
X131062992Y-79552800D01*
X130449638Y-79552800D01*
X130456748Y-79629529D01*
X130456749Y-79629535D01*
X130512738Y-79826317D01*
X130512740Y-79826320D01*
X130603936Y-80009467D01*
X130727235Y-80172743D01*
X130727238Y-80172746D01*
X130878434Y-80310581D01*
X130878438Y-80310583D01*
X131052392Y-80418291D01*
X131243183Y-80492205D01*
X131419599Y-80525181D01*
X131419600Y-80525181D01*
X131419600Y-79909408D01*
X131480774Y-79925800D01*
X131612426Y-79925800D01*
X131673600Y-79909408D01*
X131673600Y-80525181D01*
X131850016Y-80492205D01*
X132040807Y-80418291D01*
X132214761Y-80310583D01*
X132214765Y-80310581D01*
X132365961Y-80172746D01*
X132365964Y-80172743D01*
X132489263Y-80009467D01*
X132580459Y-79826320D01*
X132580461Y-79826317D01*
X132636450Y-79629535D01*
X132636451Y-79629529D01*
X132643562Y-79552800D01*
X132030208Y-79552800D01*
X132046600Y-79491626D01*
X132046600Y-79359974D01*
X132030208Y-79298800D01*
X132643562Y-79298800D01*
X132636451Y-79222070D01*
X132636450Y-79222064D01*
X132580461Y-79025282D01*
X132580459Y-79025279D01*
X132489263Y-78842132D01*
X132365964Y-78678856D01*
X132365961Y-78678853D01*
X132214765Y-78541018D01*
X132214761Y-78541016D01*
X132040807Y-78433308D01*
X131850018Y-78359395D01*
X131850019Y-78359395D01*
X131673600Y-78326417D01*
X131673600Y-78942191D01*
X131612426Y-78925800D01*
X131480774Y-78925800D01*
X131419600Y-78942191D01*
X131419600Y-78326417D01*
X131243180Y-78359395D01*
X131052392Y-78433308D01*
X130878438Y-78541016D01*
X130878434Y-78541018D01*
X130727238Y-78678853D01*
X130727235Y-78678856D01*
X130603936Y-78842132D01*
X130512740Y-79025279D01*
X130512738Y-79025282D01*
X130456749Y-79222064D01*
X130456748Y-79222070D01*
X130449638Y-79298800D01*
X130058495Y-79298800D01*
X130058494Y-79298799D01*
X130051039Y-79223104D01*
X130051039Y-79223102D01*
X129991916Y-79028197D01*
X129991911Y-79028185D01*
X129895901Y-78848565D01*
X129895893Y-78848553D01*
X129766686Y-78691113D01*
X129609246Y-78561906D01*
X129609234Y-78561898D01*
X129429614Y-78465888D01*
X129429602Y-78465883D01*
X129234696Y-78406760D01*
X129159000Y-78399305D01*
X129159000Y-78993955D01*
X129091244Y-78975800D01*
X128972756Y-78975800D01*
X128905000Y-78993955D01*
X128905000Y-78399305D01*
X128904999Y-78399305D01*
X128829304Y-78406760D01*
X128829302Y-78406760D01*
X128634397Y-78465883D01*
X128634385Y-78465888D01*
X128454765Y-78561898D01*
X128454753Y-78561906D01*
X128297313Y-78691113D01*
X128168106Y-78848553D01*
X128168098Y-78848565D01*
X128072088Y-79028185D01*
X128072083Y-79028197D01*
X128012960Y-79223102D01*
X128012960Y-79223104D01*
X128005505Y-79298799D01*
X127762000Y-79298799D01*
X127762000Y-78244270D01*
X127779593Y-78195932D01*
X127824142Y-78170212D01*
X127837200Y-78169070D01*
X132766800Y-78169070D01*
X132815138Y-78186663D01*
X132840858Y-78231212D01*
X132842000Y-78244270D01*
X132842000Y-90855800D01*
X146397400Y-90855800D01*
X146445738Y-90873393D01*
X146471458Y-90917942D01*
X146472600Y-90931000D01*
X146472600Y-94782342D01*
X146487276Y-94837120D01*
X146489072Y-94845877D01*
X146499976Y-94921705D01*
X146499977Y-94921709D01*
X146554077Y-95040171D01*
X146554080Y-95040176D01*
X146639366Y-95138601D01*
X146748926Y-95209009D01*
X146873883Y-95245700D01*
X147004117Y-95245700D01*
X147129073Y-95209009D01*
X147129073Y-95209008D01*
X147129076Y-95209008D01*
X147238636Y-95138599D01*
X147323921Y-95040174D01*
X147378023Y-94921709D01*
X147396557Y-94792800D01*
X147378023Y-94663891D01*
X147323921Y-94545426D01*
X147296767Y-94514088D01*
X147278409Y-94466035D01*
X147278400Y-94464843D01*
X147278400Y-90931000D01*
X147295993Y-90882662D01*
X147340542Y-90856942D01*
X147353600Y-90855800D01*
X149573478Y-90855800D01*
X149621816Y-90873393D01*
X149630306Y-90881750D01*
X149672981Y-90931000D01*
X149687366Y-90947601D01*
X149796926Y-91018009D01*
X149921883Y-91054700D01*
X150052117Y-91054700D01*
X150177073Y-91018009D01*
X150177073Y-91018008D01*
X150177076Y-91018008D01*
X150286636Y-90947599D01*
X150343690Y-90881754D01*
X150388640Y-90856745D01*
X150400522Y-90855800D01*
X156083000Y-90855800D01*
X156083000Y-77644900D01*
X156100593Y-77596562D01*
X156145142Y-77570842D01*
X156158200Y-77569700D01*
X163458850Y-77569700D01*
X163507188Y-77587293D01*
X163515676Y-77595648D01*
X163523044Y-77604151D01*
X163530366Y-77612601D01*
X163639926Y-77683009D01*
X163764883Y-77719700D01*
X163895117Y-77719700D01*
X164020073Y-77683009D01*
X164020073Y-77683008D01*
X164020076Y-77683008D01*
X164129636Y-77612599D01*
X164214921Y-77514174D01*
X164269023Y-77395709D01*
X164287557Y-77266800D01*
X164269023Y-77137891D01*
X164214921Y-77019426D01*
X164214919Y-77019423D01*
X164163790Y-76960418D01*
X164129636Y-76921001D01*
X164129635Y-76921000D01*
X164129633Y-76920998D01*
X164081028Y-76889763D01*
X164049875Y-76848830D01*
X164052322Y-76797448D01*
X164087223Y-76759660D01*
X164121683Y-76751300D01*
X175956108Y-76751300D01*
X176020029Y-76751300D01*
X176023965Y-76751403D01*
G37*
%TD.AperFunction*%
%TD*%
M02*
