M48
; DRILL file {KiCad 8.0.4} date 2024-10-15T16:48:53+0800
; FORMAT={-:-/ absolute / inch / decimal}
; #@! TF.CreationDate,2024-10-15T16:48:53+08:00
; #@! TF.GenerationSoftware,Kicad,Pcbnew,8.0.4
; #@! TF.FileFunction,Plated,1,2,PTH
FMAT,2
INCH
; #@! TA.AperFunction,Plated,PTH,ViaDrill
T1C0.0118
; #@! TA.AperFunction,Plated,PTH,ComponentDrill
T2C0.0354
; #@! TA.AperFunction,Plated,PTH,ComponentDrill
T3C0.0394
%
G90
G05
T1
X4.085Y-4.147
X4.09Y-3.827
X4.11Y-4.242
X4.44Y-3.642
X4.45Y-4.242
X4.54Y-3.642
X4.64Y-3.642
X4.715Y-4.237
X4.74Y-3.642
X4.83Y-3.637
X4.92Y-3.642
X5.01Y-4.237
X5.11Y-3.637
X5.335Y-4.147
X5.46Y-3.597
X5.525Y-4.037
X5.65Y-4.242
X5.785Y-3.732
X5.89Y-3.787
X5.9Y-3.397
X5.905Y-3.567
X5.925Y-3.627
X5.995Y-3.957
X6.095Y-3.392
X6.1191Y-3.6529
X6.22Y-3.467
X6.2241Y-3.5929
X6.2298Y-3.7502
X6.23Y-3.822
X6.245Y-3.437
X6.295Y-3.387
X6.295Y-3.692
X6.32Y-3.542
X6.395Y-3.702
X6.4041Y-3.8079
X6.445Y-3.657
X6.45Y-3.042
X6.495Y-3.482
X6.515Y-3.727
X6.54Y-3.797
X6.55Y-3.832
X6.59Y-3.387
X6.6132Y-3.217
X6.6143Y-3.1215
X6.75Y-4.172
X6.7641Y-3.3879
X6.785Y-3.277
X6.79Y-4.102
X6.8007Y-3.786
X6.855Y-3.877
X6.9005Y-3.0561
X6.925Y-3.267
X6.9691Y-3.5129
X7.005Y-3.722
T2
X4.08Y-3.127
X4.08Y-3.227
X4.08Y-3.327
X4.08Y-3.427
X4.08Y-3.527
X4.08Y-3.627
X4.08Y-3.727
X4.18Y-3.127
X4.18Y-3.227
X4.18Y-3.327
X4.18Y-3.427
X4.18Y-3.527
X4.18Y-3.627
X4.18Y-3.727
X4.28Y-3.127
X4.28Y-3.227
X4.28Y-3.327
X4.28Y-3.427
X4.28Y-3.527
X4.28Y-3.627
X4.28Y-3.727
X4.38Y-3.127
X4.38Y-3.227
X4.38Y-3.327
X4.38Y-3.427
X4.38Y-3.527
X4.48Y-3.127
X4.48Y-3.227
X4.48Y-3.327
X4.48Y-3.427
X4.48Y-3.527
X4.58Y-3.127
X4.58Y-3.227
X4.58Y-3.327
X4.58Y-3.427
X4.58Y-3.527
X4.68Y-3.127
X4.68Y-3.227
X4.68Y-3.327
X4.68Y-3.427
X4.68Y-3.527
X4.78Y-3.127
X4.78Y-3.227
X4.78Y-3.327
X4.78Y-3.427
X4.78Y-3.527
X4.88Y-3.127
X4.88Y-3.227
X4.88Y-3.327
X4.88Y-3.427
X4.88Y-3.527
X4.98Y-3.127
X4.98Y-3.227
X4.98Y-3.327
X4.98Y-3.427
X4.98Y-3.527
X5.08Y-3.127
X5.08Y-3.227
X5.08Y-3.327
X5.08Y-3.427
X5.08Y-3.527
X5.78Y-3.127
X5.78Y-3.227
X5.78Y-3.327
X5.78Y-3.427
X5.88Y-3.127
X5.88Y-3.227
X5.98Y-3.127
X5.98Y-3.227
X6.08Y-3.127
X6.08Y-3.227
X6.28Y-3.227
X6.38Y-3.127
X6.38Y-3.227
T3
X4.38Y-4.027
X4.38Y-4.127
X4.48Y-4.027
X4.48Y-4.127
X4.58Y-4.027
X4.58Y-4.127
X4.68Y-4.027
X4.68Y-4.127
X4.78Y-4.027
X4.78Y-4.127
X4.88Y-4.027
X4.88Y-4.127
X4.98Y-3.727
X4.98Y-3.827
X4.98Y-3.927
X4.98Y-4.027
X4.98Y-4.127
X5.08Y-4.027
X5.08Y-4.127
X5.179Y-3.127
X5.179Y-3.327
X5.18Y-3.227
X5.18Y-3.527
X5.18Y-3.727
X5.18Y-3.827
X5.18Y-3.927
X5.279Y-3.127
X5.279Y-3.327
X5.28Y-3.227
X5.28Y-3.527
X5.28Y-3.727
X5.28Y-3.827
X5.28Y-3.927
X5.379Y-3.127
X5.379Y-3.327
X5.38Y-3.227
X5.38Y-3.527
X5.38Y-3.727
X5.38Y-3.827
X5.38Y-3.927
X5.479Y-3.127
X5.479Y-3.327
X5.48Y-3.727
X5.48Y-3.827
X5.48Y-3.927
X5.579Y-3.127
X5.579Y-3.327
X5.58Y-3.727
X5.58Y-3.827
X5.58Y-3.927
X5.68Y-3.727
X5.68Y-3.827
X5.68Y-3.927
X5.78Y-4.027
X5.78Y-4.127
X5.88Y-4.027
X5.88Y-4.127
X5.98Y-4.027
X5.98Y-4.127
X6.08Y-4.027
X6.08Y-4.127
X6.18Y-4.027
X6.18Y-4.127
X6.28Y-4.027
X6.28Y-4.127
X6.38Y-4.027
X6.38Y-4.127
X6.48Y-4.027
X6.48Y-4.127
X6.58Y-4.027
X6.58Y-4.127
X6.68Y-4.027
X6.68Y-4.127
M30
