%TF.GenerationSoftware,KiCad,Pcbnew,8.0.4*%
%TF.CreationDate,2024-10-15T16:48:48+08:00*%
%TF.ProjectId,ST-Link_3.0_devkit,53542d4c-696e-46b5-9f33-2e305f646576,rev?*%
%TF.SameCoordinates,Original*%
%TF.FileFunction,Paste,Top*%
%TF.FilePolarity,Positive*%
%FSLAX46Y46*%
G04 Gerber Fmt 4.6, Leading zero omitted, Abs format (unit mm)*
G04 Created by KiCad (PCBNEW 8.0.4) date 2024-10-15 16:48:48*
%MOMM*%
%LPD*%
G01*
G04 APERTURE LIST*
G04 Aperture macros list*
%AMRoundRect*
0 Rectangle with rounded corners*
0 $1 Rounding radius*
0 $2 $3 $4 $5 $6 $7 $8 $9 X,Y pos of 4 corners*
0 Add a 4 corners polygon primitive as box body*
4,1,4,$2,$3,$4,$5,$6,$7,$8,$9,$2,$3,0*
0 Add four circle primitives for the rounded corners*
1,1,$1+$1,$2,$3*
1,1,$1+$1,$4,$5*
1,1,$1+$1,$6,$7*
1,1,$1+$1,$8,$9*
0 Add four rect primitives between the rounded corners*
20,1,$1+$1,$2,$3,$4,$5,0*
20,1,$1+$1,$4,$5,$6,$7,0*
20,1,$1+$1,$6,$7,$8,$9,0*
20,1,$1+$1,$8,$9,$2,$3,0*%
G04 Aperture macros list end*
%ADD10R,1.070100X1.899920*%
%ADD11RoundRect,0.218750X-0.218750X-0.256250X0.218750X-0.256250X0.218750X0.256250X-0.218750X0.256250X0*%
%ADD12RoundRect,0.218750X-0.256250X0.218750X-0.256250X-0.218750X0.256250X-0.218750X0.256250X0.218750X0*%
%ADD13RoundRect,0.218750X0.218750X0.256250X-0.218750X0.256250X-0.218750X-0.256250X0.218750X-0.256250X0*%
%ADD14RoundRect,0.200000X0.200000X0.275000X-0.200000X0.275000X-0.200000X-0.275000X0.200000X-0.275000X0*%
%ADD15RoundRect,0.200000X-0.053033X0.335876X-0.335876X0.053033X0.053033X-0.335876X0.335876X-0.053033X0*%
%ADD16RoundRect,0.225000X0.250000X-0.225000X0.250000X0.225000X-0.250000X0.225000X-0.250000X-0.225000X0*%
%ADD17RoundRect,0.225000X-0.225000X-0.250000X0.225000X-0.250000X0.225000X0.250000X-0.225000X0.250000X0*%
G04 APERTURE END LIST*
D10*
%TO.C,MOD1*%
X168783000Y-84323170D03*
X167513000Y-84323170D03*
X166243000Y-84323170D03*
X164973000Y-84323170D03*
X163703000Y-84323170D03*
X162433000Y-84323170D03*
X161163000Y-84323170D03*
X159893000Y-84323170D03*
X158623000Y-84323170D03*
X157353000Y-84323170D03*
X156083000Y-84323170D03*
X154813000Y-84323170D03*
X153543000Y-84323170D03*
X152273000Y-84323170D03*
X151003000Y-84323170D03*
X149733000Y-84323170D03*
X149733000Y-98963230D03*
X151003000Y-98963230D03*
X152273000Y-98963230D03*
X153543000Y-98963230D03*
X154813000Y-98963230D03*
X156083000Y-98963230D03*
X157353000Y-98963230D03*
X158623000Y-98963230D03*
X159893000Y-98963230D03*
X161163000Y-98963230D03*
X162433000Y-98963230D03*
X163703000Y-98963230D03*
X164973000Y-98963230D03*
X166243000Y-98963230D03*
X167513000Y-98963230D03*
X168783000Y-98963230D03*
%TD*%
D11*
%TO.C,TX*%
X173354900Y-100482400D03*
X174929900Y-100482400D03*
%TD*%
%TO.C,RX*%
X173354900Y-104952800D03*
X174929900Y-104952800D03*
%TD*%
D12*
%TO.C,VD10*%
X112141000Y-93700499D03*
X112141000Y-95275501D03*
%TD*%
%TO.C,VD9*%
X114554000Y-93700499D03*
X114554000Y-95275501D03*
%TD*%
%TO.C,VD8*%
X117094000Y-93700499D03*
X117094000Y-95275501D03*
%TD*%
%TO.C,VD7*%
X119634000Y-93700499D03*
X119634000Y-95275501D03*
%TD*%
%TO.C,VD6*%
X122174000Y-93700499D03*
X122174000Y-95275501D03*
%TD*%
%TO.C,VD5*%
X124206000Y-93700499D03*
X124206000Y-95275501D03*
%TD*%
D13*
%TO.C,PC1*%
X170942101Y-80441800D03*
X169367099Y-80441800D03*
%TD*%
%TO.C,PC0*%
X170942101Y-77343000D03*
X169367099Y-77343000D03*
%TD*%
D11*
%TO.C,3V3*%
X137337700Y-105841800D03*
X138912700Y-105841800D03*
%TD*%
D13*
%TO.C,5V*%
X108229501Y-106603800D03*
X106654499Y-106603800D03*
%TD*%
D14*
%TO.C,R12*%
X174942000Y-102006400D03*
X173292000Y-102006400D03*
%TD*%
%TO.C,R11*%
X174942000Y-103403400D03*
X173292000Y-103403400D03*
%TD*%
D15*
%TO.C,R10*%
X111176637Y-97662163D03*
X112343363Y-96495437D03*
%TD*%
%TO.C,R9*%
X114629363Y-96495437D03*
X113462637Y-97662163D03*
%TD*%
%TO.C,R8*%
X116002637Y-97662163D03*
X117169363Y-96495437D03*
%TD*%
%TO.C,R7*%
X119709363Y-96495437D03*
X118542637Y-97662163D03*
%TD*%
%TO.C,R6*%
X122249363Y-96495437D03*
X121082637Y-97662163D03*
%TD*%
%TO.C,R5*%
X124357563Y-96546237D03*
X123190837Y-97712963D03*
%TD*%
D14*
%TO.C,R4*%
X171005000Y-81965800D03*
X169355000Y-81965800D03*
%TD*%
%TO.C,R3*%
X169355000Y-78740000D03*
X171005000Y-78740000D03*
%TD*%
%TO.C,R2*%
X140399000Y-105841800D03*
X142049000Y-105841800D03*
%TD*%
%TO.C,R1*%
X106617000Y-104775000D03*
X108267000Y-104775000D03*
%TD*%
D16*
%TO.C,C2*%
X144094200Y-106667600D03*
X144094200Y-105117600D03*
%TD*%
D17*
%TO.C,C1*%
X106667000Y-102971600D03*
X108217000Y-102971600D03*
%TD*%
M02*
