%TF.GenerationSoftware,KiCad,Pcbnew,8.0.4*%
%TF.CreationDate,2024-10-15T16:48:48+08:00*%
%TF.ProjectId,ST-Link_3.0_devkit,53542d4c-696e-46b5-9f33-2e305f646576,rev?*%
%TF.SameCoordinates,Original*%
%TF.FileFunction,Soldermask,Bot*%
%TF.FilePolarity,Negative*%
%FSLAX46Y46*%
G04 Gerber Fmt 4.6, Leading zero omitted, Abs format (unit mm)*
G04 Created by KiCad (PCBNEW 8.0.4) date 2024-10-15 16:48:48*
%MOMM*%
%LPD*%
G01*
G04 APERTURE LIST*
%ADD10C,0.150000*%
%ADD11C,0.000000*%
%ADD12R,1.700000X1.700000*%
%ADD13O,1.700000X1.700000*%
%ADD14C,1.560000*%
G04 APERTURE END LIST*
D10*
G36*
X176327717Y-101341897D02*
G01*
X176327717Y-100877359D01*
X176095448Y-100877359D01*
X176095448Y-101341897D01*
X176327717Y-101341897D01*
G37*
G36*
X175863179Y-101110032D02*
G01*
X175863179Y-100877359D01*
X176095448Y-100877359D01*
X176095448Y-100646300D01*
X175166372Y-100646300D01*
X175166372Y-101110032D01*
X175863179Y-101110032D01*
G37*
G36*
X176095448Y-101574167D02*
G01*
X176095448Y-101343107D01*
X174934103Y-101343107D01*
X174934103Y-101574167D01*
X176095448Y-101574167D01*
G37*
G36*
X174934103Y-101341897D02*
G01*
X174934103Y-100877359D01*
X174701834Y-100877359D01*
X174701834Y-101341897D01*
X174934103Y-101341897D01*
G37*
G36*
X176327717Y-100187004D02*
G01*
X176327717Y-99722466D01*
X176095448Y-99722466D01*
X176095448Y-100187004D01*
X176327717Y-100187004D01*
G37*
G36*
X176095448Y-99722466D02*
G01*
X176095448Y-99491406D01*
X175863179Y-99491406D01*
X175863179Y-99722466D01*
X176095448Y-99722466D01*
G37*
G36*
X176095448Y-100419273D02*
G01*
X176095448Y-100188214D01*
X175630910Y-100188214D01*
X175630910Y-100419273D01*
X176095448Y-100419273D01*
G37*
G36*
X175398641Y-99722466D02*
G01*
X175398641Y-100187004D01*
X175630910Y-100187004D01*
X175630910Y-99722466D01*
X175398641Y-99722466D01*
G37*
G36*
X175166372Y-100419273D02*
G01*
X175166372Y-100188214D01*
X174934103Y-100188214D01*
X174934103Y-100419273D01*
X175166372Y-100419273D01*
G37*
G36*
X175398641Y-99722466D02*
G01*
X175398641Y-99491406D01*
X174934103Y-99491406D01*
X174934103Y-99722466D01*
X175398641Y-99722466D01*
G37*
G36*
X174934103Y-100187004D02*
G01*
X174934103Y-99722466D01*
X174701834Y-99722466D01*
X174701834Y-100187004D01*
X174934103Y-100187004D01*
G37*
G36*
X176327717Y-99264379D02*
G01*
X176327717Y-99033320D01*
X175863179Y-99033320D01*
X175863179Y-98567572D01*
X175630910Y-98567572D01*
X175630910Y-99033320D01*
X174701834Y-99033320D01*
X174701834Y-99264379D01*
X176327717Y-99264379D01*
G37*
G36*
X175630910Y-98567572D02*
G01*
X175630910Y-98336513D01*
X174701834Y-98336513D01*
X174701834Y-98567572D01*
X175630910Y-98567572D01*
G37*
G36*
X176327717Y-97644948D02*
G01*
X176327717Y-97413888D01*
X176095448Y-97413888D01*
X176095448Y-97644948D01*
X176327717Y-97644948D01*
G37*
G36*
X174701834Y-97180410D02*
G01*
X174701834Y-98109486D01*
X174934103Y-98109486D01*
X174934103Y-97644948D01*
X175630910Y-97644948D01*
X175630910Y-98109486D01*
X175863179Y-98109486D01*
X175863179Y-97413888D01*
X174934103Y-97413888D01*
X174934103Y-97180410D01*
X174701834Y-97180410D01*
G37*
G36*
X176095448Y-96722323D02*
G01*
X176095448Y-96954592D01*
X176327717Y-96954592D01*
X176327717Y-96491264D01*
X174934103Y-96491264D01*
X174934103Y-96722323D01*
X176095448Y-96722323D01*
G37*
G36*
X174701834Y-96025516D02*
G01*
X174701834Y-96490054D01*
X174934103Y-96490054D01*
X174934103Y-96025516D01*
X174701834Y-96025516D01*
G37*
G36*
X175630910Y-95102892D02*
G01*
X175630910Y-95567430D01*
X175863179Y-95567430D01*
X175863179Y-95102892D01*
X175630910Y-95102892D01*
G37*
G36*
X175166372Y-95799699D02*
G01*
X175166372Y-95568640D01*
X174934103Y-95568640D01*
X174934103Y-95799699D01*
X175166372Y-95799699D01*
G37*
G36*
X174701834Y-94871832D02*
G01*
X174701834Y-95567430D01*
X174934103Y-95567430D01*
X174934103Y-95102892D01*
X175166372Y-95102892D01*
X175166372Y-95567430D01*
X175398641Y-95567430D01*
X175398641Y-95102892D01*
X175630910Y-95102892D01*
X175630910Y-94871832D01*
X174701834Y-94871832D01*
G37*
G36*
X175630910Y-93947998D02*
G01*
X175630910Y-93716939D01*
X175166372Y-93716939D01*
X175166372Y-93947998D01*
X175630910Y-93947998D01*
G37*
G36*
X175863179Y-94644805D02*
G01*
X175863179Y-93947998D01*
X175630910Y-93947998D01*
X175630910Y-94413746D01*
X175166372Y-94413746D01*
X175166372Y-93947998D01*
X174934103Y-93947998D01*
X174934103Y-94413746D01*
X174469564Y-94413746D01*
X174469564Y-94644805D01*
X175863179Y-94644805D01*
G37*
G36*
X176327717Y-93025374D02*
G01*
X176327717Y-92794314D01*
X176095448Y-92794314D01*
X176095448Y-93025374D01*
X176327717Y-93025374D01*
G37*
G36*
X174701834Y-92560836D02*
G01*
X174701834Y-93489912D01*
X174934103Y-93489912D01*
X174934103Y-93025374D01*
X175630910Y-93025374D01*
X175630910Y-93489912D01*
X175863179Y-93489912D01*
X175863179Y-92794314D01*
X174934103Y-92794314D01*
X174934103Y-92560836D01*
X174701834Y-92560836D01*
G37*
D11*
%TO.C,G\u002A\u002A\u002A*%
G36*
X175465426Y-101970477D02*
G01*
X175532557Y-101972006D01*
X175594008Y-101975056D01*
X175653227Y-101979868D01*
X175713662Y-101986682D01*
X175778760Y-101995738D01*
X175797092Y-101998552D01*
X175959922Y-102029992D01*
X176119391Y-102072348D01*
X176274979Y-102125319D01*
X176426169Y-102188602D01*
X176572442Y-102261893D01*
X176713279Y-102344890D01*
X176848163Y-102437290D01*
X176976574Y-102538790D01*
X177097996Y-102649087D01*
X177211908Y-102767880D01*
X177317794Y-102894863D01*
X177401246Y-103009476D01*
X177487198Y-103145607D01*
X177562875Y-103286561D01*
X177628164Y-103431798D01*
X177682951Y-103580780D01*
X177727122Y-103732962D01*
X177760562Y-103887810D01*
X177783157Y-104044780D01*
X177794794Y-104203334D01*
X177795357Y-104362930D01*
X177784733Y-104523030D01*
X177762808Y-104683093D01*
X177729467Y-104842579D01*
X177723995Y-104864366D01*
X177678669Y-105017686D01*
X177622322Y-105167299D01*
X177554961Y-105313191D01*
X177476595Y-105455348D01*
X177387230Y-105593753D01*
X177286876Y-105728392D01*
X177273442Y-105744825D01*
X177240917Y-105782419D01*
X177202661Y-105824422D01*
X177160555Y-105868923D01*
X177116478Y-105914017D01*
X177072309Y-105957795D01*
X177029930Y-105998348D01*
X176991219Y-106033769D01*
X176958056Y-106062150D01*
X176902993Y-106105763D01*
X176764883Y-106205104D01*
X176622085Y-106293940D01*
X176474820Y-106372159D01*
X176323312Y-106439649D01*
X176167782Y-106496297D01*
X176008454Y-106541992D01*
X176006877Y-106542385D01*
X175843405Y-106577219D01*
X175679317Y-106600774D01*
X175515158Y-106613192D01*
X175412414Y-106614086D01*
X175351473Y-106614617D01*
X175188808Y-106605192D01*
X175027706Y-106585061D01*
X174868715Y-106554365D01*
X174712378Y-106513250D01*
X174559242Y-106461856D01*
X174409851Y-106400330D01*
X174264751Y-106328812D01*
X174124487Y-106247447D01*
X173989604Y-106156377D01*
X173860647Y-106055746D01*
X173738162Y-105945698D01*
X173715404Y-105923479D01*
X173603013Y-105804394D01*
X173499871Y-105678842D01*
X173406227Y-105547334D01*
X173322326Y-105410378D01*
X173248417Y-105268485D01*
X173184748Y-105122165D01*
X173131566Y-104971926D01*
X173089117Y-104818280D01*
X173057653Y-104661735D01*
X173037417Y-104502802D01*
X173036015Y-104486563D01*
X173029880Y-104372513D01*
X173029443Y-104253506D01*
X173034553Y-104133395D01*
X173045058Y-104016034D01*
X173060808Y-103905274D01*
X173065724Y-103877756D01*
X173100716Y-103719450D01*
X173122341Y-103646608D01*
X173269166Y-103646608D01*
X173275722Y-103679869D01*
X173291924Y-103707246D01*
X173317847Y-103729070D01*
X173339360Y-103742447D01*
X173708614Y-103743086D01*
X173749154Y-103743165D01*
X173820549Y-103743362D01*
X173881760Y-103743638D01*
X173933746Y-103744012D01*
X173977464Y-103744509D01*
X174013875Y-103745154D01*
X174043935Y-103745970D01*
X174068605Y-103746978D01*
X174088840Y-103748203D01*
X174105602Y-103749669D01*
X174119846Y-103751398D01*
X174132536Y-103753414D01*
X174146764Y-103756076D01*
X174217020Y-103773639D01*
X174280591Y-103797119D01*
X174336084Y-103825926D01*
X174382105Y-103859463D01*
X174383373Y-103860570D01*
X174398496Y-103873254D01*
X174409649Y-103881708D01*
X174414497Y-103884154D01*
X174414935Y-103882739D01*
X174417019Y-103872169D01*
X174420321Y-103853083D01*
X174424489Y-103827565D01*
X174429170Y-103797690D01*
X174430319Y-103790344D01*
X174441492Y-103727848D01*
X174455198Y-103663818D01*
X174470630Y-103601539D01*
X174486979Y-103544298D01*
X174503440Y-103495381D01*
X174507868Y-103483693D01*
X174546145Y-103396466D01*
X174591242Y-103314876D01*
X174642219Y-103240315D01*
X174698133Y-103174184D01*
X174758040Y-103117878D01*
X174784152Y-103097118D01*
X174865463Y-103041957D01*
X174953848Y-102995396D01*
X175049491Y-102957376D01*
X175152577Y-102927842D01*
X175263295Y-102906738D01*
X175381827Y-102894006D01*
X175508362Y-102889590D01*
X175543104Y-102889842D01*
X175622660Y-102893438D01*
X175694822Y-102901631D01*
X175762110Y-102914873D01*
X175827045Y-102933615D01*
X175892153Y-102958308D01*
X175902787Y-102962908D01*
X175949281Y-102985437D01*
X175996680Y-103011844D01*
X176041988Y-103040278D01*
X176082208Y-103068884D01*
X176114346Y-103095808D01*
X176133013Y-103113350D01*
X176176643Y-103100398D01*
X176192169Y-103096006D01*
X176274662Y-103079192D01*
X176361994Y-103071470D01*
X176452166Y-103072833D01*
X176543178Y-103083267D01*
X176633029Y-103102765D01*
X176644380Y-103105931D01*
X176671744Y-103114192D01*
X176696298Y-103122385D01*
X176713808Y-103129132D01*
X176739882Y-103140666D01*
X176736566Y-103203141D01*
X176736331Y-103207241D01*
X176727795Y-103273885D01*
X176710075Y-103344748D01*
X176683020Y-103420196D01*
X176646483Y-103500597D01*
X176600316Y-103586319D01*
X176544366Y-103677729D01*
X176503583Y-103740941D01*
X176518915Y-103805659D01*
X176537004Y-103886834D01*
X176552184Y-103968069D01*
X176563246Y-104046149D01*
X176570612Y-104124707D01*
X176574701Y-104207374D01*
X176575935Y-104297782D01*
X176575914Y-104305948D01*
X176572975Y-104407731D01*
X176565304Y-104509218D01*
X176553231Y-104607704D01*
X176537081Y-104700484D01*
X176517180Y-104784854D01*
X176516496Y-104787373D01*
X176511000Y-104808958D01*
X176507112Y-104826577D01*
X176505638Y-104836624D01*
X176505656Y-104836946D01*
X176509122Y-104845922D01*
X176517721Y-104862193D01*
X176530223Y-104883553D01*
X176545393Y-104907794D01*
X176595625Y-104989849D01*
X176639432Y-105070473D01*
X176675506Y-105147359D01*
X176703579Y-105219803D01*
X176723374Y-105287104D01*
X176734622Y-105348556D01*
X176737051Y-105403460D01*
X176736830Y-105409239D01*
X176735953Y-105425608D01*
X176733660Y-105437627D01*
X176728334Y-105446593D01*
X176718361Y-105453805D01*
X176702124Y-105460560D01*
X176678007Y-105468157D01*
X176644396Y-105477893D01*
X176601540Y-105489108D01*
X176514719Y-105505168D01*
X176427475Y-105512903D01*
X176341905Y-105512275D01*
X176260108Y-105503250D01*
X176184182Y-105485792D01*
X176133125Y-105470474D01*
X176114402Y-105488071D01*
X176107758Y-105494130D01*
X176073408Y-105521660D01*
X176031674Y-105550429D01*
X175985556Y-105578583D01*
X175938050Y-105604267D01*
X175892153Y-105625626D01*
X175866272Y-105636112D01*
X175801413Y-105658440D01*
X175735715Y-105674981D01*
X175666656Y-105686190D01*
X175591712Y-105692516D01*
X175508362Y-105694413D01*
X175473887Y-105694046D01*
X175349310Y-105687305D01*
X175232253Y-105672121D01*
X175122845Y-105648524D01*
X175021214Y-105616549D01*
X174927491Y-105576227D01*
X174841803Y-105527589D01*
X174806259Y-105503283D01*
X174734041Y-105444432D01*
X174669250Y-105377556D01*
X174611757Y-105302427D01*
X174561435Y-105218815D01*
X174518154Y-105126492D01*
X174481785Y-105025228D01*
X174452199Y-104914796D01*
X174429268Y-104794966D01*
X174427675Y-104784907D01*
X174423020Y-104755986D01*
X174418987Y-104731626D01*
X174415964Y-104714137D01*
X174414339Y-104705830D01*
X174410532Y-104704461D01*
X174399433Y-104710643D01*
X174381709Y-104725039D01*
X174374412Y-104731208D01*
X174335541Y-104757989D01*
X174288350Y-104782633D01*
X174235531Y-104803866D01*
X174179775Y-104820420D01*
X174113046Y-104836755D01*
X174103087Y-104859597D01*
X174092466Y-104886385D01*
X174075282Y-104944271D01*
X174063672Y-105005584D01*
X174058004Y-105067155D01*
X174058646Y-105125814D01*
X174065969Y-105178392D01*
X174079257Y-105225132D01*
X174103036Y-105278916D01*
X174135623Y-105329215D01*
X174177724Y-105376925D01*
X174230044Y-105422950D01*
X174293289Y-105468185D01*
X174294748Y-105469141D01*
X174353554Y-105510593D01*
X174402155Y-105551321D01*
X174441770Y-105592593D01*
X174473620Y-105635677D01*
X174498925Y-105681841D01*
X174504222Y-105693715D01*
X174518521Y-105732920D01*
X174528036Y-105771159D01*
X174532912Y-105807173D01*
X174533296Y-105839699D01*
X174529335Y-105867476D01*
X174521174Y-105889244D01*
X174508960Y-105903742D01*
X174492838Y-105909707D01*
X174472956Y-105905880D01*
X174461957Y-105899649D01*
X174440529Y-105880939D01*
X174415923Y-105852476D01*
X174388770Y-105814946D01*
X174368129Y-105786753D01*
X174325245Y-105739644D01*
X174273825Y-105695973D01*
X174213112Y-105655199D01*
X174142352Y-105616780D01*
X174060788Y-105580174D01*
X174029990Y-105566490D01*
X173962778Y-105528276D01*
X173904012Y-105482073D01*
X173853708Y-105427894D01*
X173811877Y-105365753D01*
X173778531Y-105295663D01*
X173753680Y-105217641D01*
X173749308Y-105198872D01*
X173745776Y-105179110D01*
X173743387Y-105157822D01*
X173741938Y-105132482D01*
X173741227Y-105100566D01*
X173741053Y-105059549D01*
X173741630Y-105007713D01*
X173743396Y-104964965D01*
X173746481Y-104929636D01*
X173751015Y-104899636D01*
X173753213Y-104887898D01*
X173757166Y-104866122D01*
X173759903Y-104850101D01*
X173760930Y-104842669D01*
X173760930Y-104842665D01*
X173755301Y-104841653D01*
X173739338Y-104840811D01*
X173714333Y-104840155D01*
X173681577Y-104839705D01*
X173642362Y-104839478D01*
X173597978Y-104839490D01*
X173549718Y-104839761D01*
X173338489Y-104841486D01*
X173315119Y-104856958D01*
X173309220Y-104861275D01*
X173293138Y-104876828D01*
X173282073Y-104892823D01*
X173273239Y-104919275D01*
X173269273Y-104953129D01*
X173272540Y-104984696D01*
X173277566Y-105001665D01*
X173287734Y-105030520D01*
X173301423Y-105065971D01*
X173317760Y-105105889D01*
X173335862Y-105148138D01*
X173354854Y-105190584D01*
X173373859Y-105231092D01*
X173417815Y-105317252D01*
X173497059Y-105452319D01*
X173585504Y-105580863D01*
X173682652Y-105702512D01*
X173788002Y-105816894D01*
X173901055Y-105923637D01*
X174021311Y-106022370D01*
X174148270Y-106112720D01*
X174281433Y-106194316D01*
X174420299Y-106266786D01*
X174564368Y-106329759D01*
X174713144Y-106382862D01*
X174866124Y-106425723D01*
X175022808Y-106457971D01*
X175029726Y-106459138D01*
X175079158Y-106467141D01*
X175123303Y-106473493D01*
X175164575Y-106478373D01*
X175205392Y-106481962D01*
X175248168Y-106484440D01*
X175295320Y-106485988D01*
X175349263Y-106486784D01*
X175412414Y-106487009D01*
X175421202Y-106487006D01*
X175483023Y-106486717D01*
X175535952Y-106485833D01*
X175582399Y-106484176D01*
X175624785Y-106481564D01*
X175665524Y-106477816D01*
X175707033Y-106472756D01*
X175751726Y-106466202D01*
X175802020Y-106457971D01*
X175932291Y-106431940D01*
X176086918Y-106390481D01*
X176237838Y-106338409D01*
X176384447Y-106276064D01*
X176526139Y-106203786D01*
X176662311Y-106121916D01*
X176792359Y-106030791D01*
X176915677Y-105930753D01*
X177031663Y-105822143D01*
X177139712Y-105705300D01*
X177208024Y-105621677D01*
X177298476Y-105496219D01*
X177379816Y-105364915D01*
X177451682Y-105228607D01*
X177513717Y-105088131D01*
X177565559Y-104944326D01*
X177606850Y-104798028D01*
X177637229Y-104650076D01*
X177656339Y-104501307D01*
X177665014Y-104347546D01*
X177663064Y-104188021D01*
X177649918Y-104030625D01*
X177625685Y-103875763D01*
X177590476Y-103723842D01*
X177544401Y-103575267D01*
X177487573Y-103430445D01*
X177420098Y-103289781D01*
X177342090Y-103153682D01*
X177253659Y-103022553D01*
X177241138Y-103005530D01*
X177140737Y-102879969D01*
X177032378Y-102762651D01*
X176916537Y-102653843D01*
X176793689Y-102553814D01*
X176664313Y-102462832D01*
X176528886Y-102381166D01*
X176387884Y-102309082D01*
X176241784Y-102246849D01*
X176091061Y-102194737D01*
X175936197Y-102153012D01*
X175777664Y-102121943D01*
X175615940Y-102101796D01*
X175590256Y-102099826D01*
X175538434Y-102097245D01*
X175480145Y-102095741D01*
X175417968Y-102095284D01*
X175354485Y-102095842D01*
X175292277Y-102097383D01*
X175233924Y-102099877D01*
X175182009Y-102103292D01*
X175139108Y-102107596D01*
X175082724Y-102115361D01*
X174919295Y-102145406D01*
X174760439Y-102186032D01*
X174606368Y-102237145D01*
X174457296Y-102298650D01*
X174313438Y-102370454D01*
X174175005Y-102452463D01*
X174042213Y-102544581D01*
X173915271Y-102646716D01*
X173912139Y-102649434D01*
X173875045Y-102683039D01*
X173833524Y-102722809D01*
X173789788Y-102766460D01*
X173746051Y-102811706D01*
X173704526Y-102856262D01*
X173667424Y-102897842D01*
X173636960Y-102934161D01*
X173602714Y-102978236D01*
X173544707Y-103059133D01*
X173488856Y-103144655D01*
X173436288Y-103232787D01*
X173388129Y-103321512D01*
X173345504Y-103408814D01*
X173309539Y-103492676D01*
X173281359Y-103571082D01*
X173272180Y-103607134D01*
X173269166Y-103646608D01*
X173122341Y-103646608D01*
X173146431Y-103565460D01*
X173202925Y-103415653D01*
X173270264Y-103269892D01*
X173348507Y-103128043D01*
X173437716Y-102989971D01*
X173537953Y-102855541D01*
X173551387Y-102839109D01*
X173583913Y-102801514D01*
X173622167Y-102759512D01*
X173664275Y-102715010D01*
X173708351Y-102669916D01*
X173752519Y-102626138D01*
X173794899Y-102585585D01*
X173833610Y-102550164D01*
X173866772Y-102521784D01*
X173956039Y-102452223D01*
X174095618Y-102355224D01*
X174239632Y-102268976D01*
X174388088Y-102193476D01*
X174540995Y-102128719D01*
X174698358Y-102074707D01*
X174860184Y-102031433D01*
X175026482Y-101998895D01*
X175197259Y-101977090D01*
X175207429Y-101976229D01*
X175238911Y-101974296D01*
X175277995Y-101972634D01*
X175321837Y-101971333D01*
X175367592Y-101970486D01*
X175412414Y-101970183D01*
X175465426Y-101970477D01*
G37*
%TD*%
D12*
%TO.C,CON3*%
X146812000Y-104825800D03*
D13*
X149352000Y-104825800D03*
X151892000Y-104825800D03*
X154432000Y-104825800D03*
X156972000Y-104825800D03*
X159512000Y-104825800D03*
X162052000Y-104825800D03*
X164592000Y-104825800D03*
X167132000Y-104825800D03*
X169672000Y-104825800D03*
%TD*%
%TO.C,CON1*%
X129032000Y-104825800D03*
X126492000Y-104825800D03*
X123952000Y-104825800D03*
X121412000Y-104825800D03*
X118872000Y-104825800D03*
X116332000Y-104825800D03*
X113792000Y-104825800D03*
D12*
X111252000Y-104825800D03*
%TD*%
%TO.C,CON2*%
X111252000Y-102285800D03*
D13*
X113792000Y-102285800D03*
X116332000Y-102285800D03*
X118872000Y-102285800D03*
X121412000Y-102285800D03*
X123952000Y-102285800D03*
X126492000Y-102285800D03*
X129032000Y-102285800D03*
%TD*%
D12*
%TO.C,CON13*%
X144272000Y-99745800D03*
D13*
X141732000Y-99745800D03*
X139192000Y-99745800D03*
X136652000Y-99745800D03*
X134112000Y-99745800D03*
X131572000Y-99745800D03*
%TD*%
D12*
%TO.C,CON12*%
X136652000Y-81965800D03*
D13*
X134112000Y-81965800D03*
X131572000Y-81965800D03*
%TD*%
D12*
%TO.C,CON11*%
X144272000Y-97205800D03*
D13*
X141732000Y-97205800D03*
X139192000Y-97205800D03*
X136652000Y-97205800D03*
X134112000Y-97205800D03*
X131572000Y-97205800D03*
%TD*%
D12*
%TO.C,CON10*%
X136652000Y-89585800D03*
D13*
X134112000Y-89585800D03*
X131572000Y-89585800D03*
%TD*%
D12*
%TO.C,CON9*%
X141706600Y-84505800D03*
D13*
X139166600Y-84505800D03*
X136626600Y-84505800D03*
X134086600Y-84505800D03*
X131546600Y-84505800D03*
%TD*%
D12*
%TO.C,CON8*%
X131572000Y-94665800D03*
D13*
X134112000Y-94665800D03*
X136652000Y-94665800D03*
X139192000Y-94665800D03*
X141732000Y-94665800D03*
X144272000Y-94665800D03*
%TD*%
D12*
%TO.C,CON7*%
X141706600Y-79425800D03*
D13*
X139166600Y-79425800D03*
X136626600Y-79425800D03*
X134086600Y-79425800D03*
X131546600Y-79425800D03*
%TD*%
D12*
%TO.C,CON6*%
X126492000Y-94665800D03*
D13*
X126492000Y-97205800D03*
X126492000Y-99745800D03*
%TD*%
D12*
%TO.C,CON4*%
X146812000Y-102285800D03*
D13*
X149352000Y-102285800D03*
X151892000Y-102285800D03*
X154432000Y-102285800D03*
X156972000Y-102285800D03*
X159512000Y-102285800D03*
X162052000Y-102285800D03*
X164592000Y-102285800D03*
X167132000Y-102285800D03*
X169672000Y-102285800D03*
%TD*%
D14*
%TO.C,*%
X103632000Y-89585800D03*
%TD*%
%TO.C,*%
X113792000Y-89585800D03*
%TD*%
%TO.C,*%
X108712000Y-89585800D03*
%TD*%
%TO.C,*%
X103632000Y-79425800D03*
%TD*%
%TO.C,*%
X103632000Y-87045800D03*
%TD*%
%TO.C,*%
X106172000Y-84505800D03*
%TD*%
%TO.C,*%
X108712000Y-87045800D03*
%TD*%
%TO.C,*%
X106172000Y-89585800D03*
%TD*%
%TO.C,*%
X106172000Y-81965800D03*
%TD*%
%TO.C,*%
X106172000Y-79425800D03*
%TD*%
%TO.C,*%
X103632000Y-81965800D03*
%TD*%
%TO.C,*%
X103632000Y-84505800D03*
%TD*%
%TO.C,*%
X106172000Y-87045800D03*
%TD*%
%TO.C,*%
X121412000Y-89585800D03*
%TD*%
%TO.C,*%
X126492000Y-89585800D03*
%TD*%
%TO.C,*%
X118872000Y-87045800D03*
%TD*%
%TO.C,*%
X118872000Y-81965800D03*
%TD*%
%TO.C,*%
X113792000Y-87045800D03*
%TD*%
%TO.C,*%
X121412000Y-84505800D03*
%TD*%
%TO.C,*%
X126492000Y-84505800D03*
%TD*%
%TO.C,*%
X126492000Y-81965800D03*
%TD*%
%TO.C,*%
X121412000Y-81965800D03*
%TD*%
%TO.C,*%
X123952000Y-81965800D03*
%TD*%
%TO.C,*%
X123952000Y-89585800D03*
%TD*%
%TO.C,*%
X121412000Y-87045800D03*
%TD*%
%TO.C,*%
X123952000Y-87045800D03*
%TD*%
%TO.C,*%
X116332000Y-81965800D03*
%TD*%
%TO.C,*%
X113792000Y-81965800D03*
%TD*%
%TO.C,*%
X116332000Y-87045800D03*
%TD*%
%TO.C,*%
X118872000Y-89585800D03*
%TD*%
%TO.C,*%
X126492000Y-87045800D03*
%TD*%
%TO.C,*%
X108712000Y-92125800D03*
%TD*%
%TO.C,*%
X103632000Y-94665800D03*
%TD*%
%TO.C,*%
X106172000Y-92125800D03*
%TD*%
%TO.C,*%
X103632000Y-92125800D03*
%TD*%
%TO.C,*%
X116332000Y-89585800D03*
%TD*%
%TO.C,*%
X106172000Y-94665800D03*
%TD*%
%TO.C,*%
X108712000Y-94665800D03*
%TD*%
%TO.C,*%
X111252000Y-89585800D03*
%TD*%
%TO.C,*%
X111252000Y-81965800D03*
%TD*%
%TO.C,*%
X118872000Y-84505800D03*
%TD*%
%TO.C,*%
X111252000Y-79425800D03*
%TD*%
%TO.C,*%
X113792000Y-84505800D03*
%TD*%
%TO.C,*%
X116332000Y-84505800D03*
%TD*%
%TO.C,*%
X129032000Y-81965800D03*
%TD*%
%TO.C,*%
X129032000Y-84505800D03*
%TD*%
%TO.C,*%
X113792000Y-79425800D03*
%TD*%
%TO.C,*%
X121412000Y-79425800D03*
%TD*%
%TO.C,*%
X118872000Y-79425800D03*
%TD*%
%TO.C,*%
X129032000Y-79425800D03*
%TD*%
%TO.C,*%
X111252000Y-84505800D03*
%TD*%
%TO.C,*%
X116332000Y-79425800D03*
%TD*%
%TO.C,*%
X123952000Y-84505800D03*
%TD*%
%TO.C,*%
X111252000Y-87045800D03*
%TD*%
%TO.C,*%
X126492000Y-79425800D03*
%TD*%
%TO.C,*%
X123952000Y-79425800D03*
%TD*%
%TO.C,*%
X108712000Y-79425800D03*
%TD*%
%TO.C,*%
X146812000Y-84505800D03*
%TD*%
%TO.C,*%
X154432000Y-79425800D03*
%TD*%
%TO.C,*%
X154432000Y-81965800D03*
%TD*%
%TO.C,*%
X151892000Y-81965800D03*
%TD*%
%TO.C,*%
X146812000Y-79425800D03*
%TD*%
%TO.C,*%
X129032000Y-89585800D03*
%TD*%
%TO.C,*%
X149352000Y-81965800D03*
%TD*%
%TO.C,*%
X108712000Y-84505800D03*
%TD*%
%TO.C,*%
X162052000Y-81965800D03*
%TD*%
%TO.C,*%
X129032000Y-87045800D03*
%TD*%
%TO.C,*%
X149352000Y-79425800D03*
%TD*%
%TO.C,*%
X159512000Y-81965800D03*
%TD*%
%TO.C,*%
X151892000Y-79425800D03*
%TD*%
%TO.C,*%
X162052000Y-79425800D03*
%TD*%
%TO.C,*%
X108712000Y-81965800D03*
%TD*%
%TO.C,*%
X146812000Y-81965800D03*
%TD*%
%TO.C,*%
X146812000Y-87045800D03*
%TD*%
M02*
